<svg width="33" height="36" viewBox="0 0 33 36" fill="none" xmlns="http://www.w3.org/2000/svg">
<path d="M15.8818 35.3611C16.4023 35.6391 17.0556 35.6373 17.576 35.3593C31.76 27.7398 32.7673 12.853 32.7549 8.62016C32.7536 8.27996 32.653 7.94753 32.4656 7.66359C32.2782 7.37965 32.0121 7.15653 31.6998 7.02155L17.4486 0.708525C17.2218 0.608553 16.9766 0.55707 16.7287 0.557374C16.4809 0.557679 16.2358 0.609766 16.0093 0.710295L1.8572 7.02332C1.54951 7.15837 1.28713 7.37903 1.10132 7.65901C0.915504 7.93898 0.814092 8.26647 0.809164 8.60246C0.748972 12.8141 1.59696 27.7327 15.8818 35.3611ZM10.9001 15.0713L14.9595 19.1307L22.5595 11.5306L25.0628 14.0339L14.9595 24.1372L8.39683 17.5745L10.9001 15.0713Z" fill="white"/>
</svg>
