<svg width="276" height="55" fill="none" xmlns="http://www.w3.org/2000/svg"><path d="M1 16.542c42.339 23.05 156.413 59.103 274 18.905" stroke="#fff" stroke-width="2" stroke-dasharray="4.2 4.2"/><path d="M36.214 14.973l-1.288-.436 2.645-7.82 6.487 2.194-2.645 7.82-1.288-.435 2.26-6.684-3.91-1.323-2.26 6.684zm10.922-5.068l-.345 1.116c.851-.73 1.878-.91 3.08-.54 1.101.34 1.858.981 2.27 1.923.423.946.438 2.055.044 3.33-.393 1.274-1.028 2.194-1.906 2.76-.865.56-1.838.672-2.918.339-1.131-.35-1.88-1.055-2.244-2.116L43.84 20.86l-1.3-.401 3.374-10.931 1.223.377zm2.202 1.6c-.755-.232-1.436-.141-2.044.274-.595.408-1.04 1.091-1.336 2.05-.295.957-.309 1.78-.04 2.465.281.679.804 1.136 1.569 1.372.744.23 1.415.135 2.013-.283.598-.418 1.043-1.102 1.335-2.05.296-.958.308-1.774.037-2.45-.259-.682-.77-1.141-1.534-1.377zm5.155 9.245l-1.679-.471 2.234-7.948 1.31.368-1.823 6.484.03.01 5.397-5.48 1.679.471-2.234 7.948-1.31-.368 1.823-6.485-.03-.008-5.397 5.48zm13.28-3.963c.891-.596 1.943-.746 3.156-.45 1.212.294 2.066.892 2.56 1.792.495.9.58 2.013.258 3.34-.33 1.357-.925 2.332-1.782 2.925-.858.592-1.899.74-3.122.442-1.223-.298-2.09-.904-2.603-1.82-.513-.915-.608-2.035-.285-3.362.32-1.316.926-2.272 1.818-2.867zm4.482 1.947c-.306-.679-.849-1.112-1.626-1.302-.777-.189-1.463-.054-2.058.405-.595.46-1.008 1.165-1.24 2.119-.24.984-.205 1.81.104 2.479.323.66.888 1.089 1.696 1.286.778.189 1.452.057 2.024-.397.582-.451.992-1.17 1.232-2.154.232-.953.188-1.765-.132-2.436zm4.427 7.692l-1.329-.29 1.756-8.067 6.691 1.456-1.755 8.068-1.33-.29 1.501-6.894-4.034-.878-1.5 6.895zm16.268-5.092l-1.567 8.106-1.335-.258 1.339-6.928-2.89-.558-.803 3.56c-.27 1.23-.668 2.082-1.195 2.556-.526.474-1.103.65-1.731.53-.388-.076-.696-.195-.925-.359l.21-1.084c.121.1.35.182.685.247.314.06.614-.056.898-.348.297-.301.534-.853.711-1.655l1.089-4.874 5.514 1.065zm7.53 8.583l-.177 1.041c-.291.059-.605.06-.942.002-.767-.13-1.093-.597-.978-1.4-.915.732-1.971.995-3.17.791-.8-.136-1.4-.45-1.804-.94-.393-.489-.528-1.091-.407-1.806.248-1.451 1.354-2.134 3.32-2.048.13 0 .317.01.562.031.933.05 1.516.026 1.75-.075.27-.127.44-.396.51-.806.152-.894-.387-1.445-1.617-1.655-.63-.107-1.132-.058-1.502.15-.37.197-.635.584-.799 1.162l-1.309-.223c.17-.869.596-1.494 1.277-1.876.682-.381 1.549-.483 2.6-.304 1.146.196 1.953.604 2.421 1.224.15.199.244.442.281.73.038.288.047.522.027.702-.018.17-.057.429-.116.776-.068.4-.181 1.002-.34 1.808-.16.806-.273 1.41-.34 1.809-.051.294-.05.51.002.65.064.13.202.212.412.248.084.015.197.018.339.01zm-1.623-3.522a1.82 1.82 0 01-.332.138 1.607 1.607 0 01-.432.056 3.205 3.205 0 00-.344.023c-.055.001-.195 0-.421-.007a17.04 17.04 0 01-.353-.028 12.183 12.183 0 00-.662-.015 5.229 5.229 0 00-.59.03c-.286.027-.495.077-.626.152a1.702 1.702 0 00-.42.367 1.28 1.28 0 00-.268.62c-.071.42.014.776.257 1.066.253.292.632.481 1.137.567.641.11 1.247.018 1.816-.275.57-.292.898-.696.985-1.212l.253-1.482zm11.386-1.045l-2.929-.43-1.026 6.98-1.346-.198 1.027-6.98-2.929-.431.175-1.188 7.203 1.06-.175 1.187zm7.937 5.498c-.651 1.853-1.961 2.657-3.93 2.41-1.206-.15-2.106-.645-2.7-1.483-.584-.836-.792-1.92-.625-3.255.166-1.322.649-2.348 1.449-3.075.813-.737 1.785-1.035 2.918-.893 1.259.158 2.137.703 2.633 1.636.508.924.68 2.036.518 3.338l-.024.19-6.16-.77-.028.093c-.109.868.033 1.579.426 2.133.393.555.986.881 1.78.98.593.075 1.076-.004 1.449-.237.384-.232.709-.642.977-1.232l1.317.165zm-1.021-2.402c.034-.791-.128-1.43-.486-1.915-.357-.496-.875-.787-1.552-.871-.656-.083-1.229.071-1.719.462-.489.39-.825.966-1.006 1.728l4.763.596zm14.01 6.315l-1.721-.157-2.625-4.322-1.406 1.14-.255 2.79-1.354-.125.753-8.222 1.354.125-.359 3.92 4.119-3.576 1.817.166-3.611 2.931 3.288 5.33zm8.705-.474l-.072 1.053a2.57 2.57 0 01-.937.096c-.777-.053-1.148-.485-1.114-1.295-.837.82-1.862 1.188-3.075 1.104-.809-.055-1.438-.307-1.889-.755-.44-.447-.635-1.032-.585-1.756.101-1.469 1.133-2.258 3.098-2.37a7.75 7.75 0 01.563-.025c.933-.043 1.511-.126 1.733-.25.256-.153.399-.438.427-.853.062-.904-.529-1.4-1.774-1.485-.639-.044-1.132.056-1.48.3-.348.233-.574.645-.678 1.236l-1.325-.09c.082-.883.443-1.547 1.083-1.995.64-.448 1.492-.636 2.556-.563 1.16.08 2.004.405 2.531.976.17.183.287.415.353.698.067.282.099.514.097.696a13.95 13.95 0 01-.038.783c-.027.405-.08 1.016-.158 1.834a82.33 82.33 0 00-.158 1.833c-.02.298.003.514.068.646.078.123.222.192.435.207.085.006.198-.003.339-.025zm-1.968-3.343a1.824 1.824 0 01-.316.171c-.11.046-.252.079-.424.1-.162.02-.276.04-.341.056a10.15 10.15 0 01-.419.035c-.225.006-.343.009-.354.008-.332.02-.553.037-.661.051a5.216 5.216 0 00-.583.088c-.282.056-.485.128-.608.215a1.692 1.692 0 00-.381.407 1.275 1.275 0 00-.205.644c-.029.425.092.77.362 1.035.282.265.678.415 1.188.45a2.832 2.832 0 001.78-.455c.537-.348.823-.783.859-1.304l.103-1.5zm5.738-3.631l-.05 1.167c.637-.923 1.585-1.357 2.843-1.303 1.15.05 2.045.478 2.683 1.285.648.808.944 1.877.886 3.21-.057 1.332-.439 2.383-1.145 3.153-.694.76-1.607 1.116-2.736 1.067-1.183-.05-2.085-.544-2.707-1.478l-.187 4.332-1.359-.059.493-11.429 1.279.055zm2.536.99c-.789-.034-1.425.227-1.908.783-.472.545-.729 1.32-.772 2.32-.044 1.002.152 1.801.585 2.396.445.585 1.066.895 1.866.93.778.033 1.403-.228 1.875-.784.473-.557.73-1.33.773-2.321.043-1.002-.152-1.795-.586-2.38-.423-.595-1.034-.91-1.833-.944zm12.581.677l-2.959-.056-.134 7.055-1.36-.026.134-7.055-2.959-.056.022-1.2 7.279.138-.023 1.2zm1.187-.237c.722-.792 1.707-1.19 2.955-1.195 1.248-.005 2.22.37 2.917 1.125.696.755 1.046 1.815 1.051 3.18.005 1.398-.337 2.487-1.028 3.268-.69.781-1.665 1.174-2.923 1.179-1.259.005-2.247-.376-2.964-1.141-.718-.765-1.079-1.83-1.084-3.196-.005-1.355.353-2.428 1.076-3.22zm4.819.814c-.461-.585-1.091-.876-1.891-.873-.8.003-1.434.299-1.901.887-.467.589-.699 1.373-.695 2.355.003 1.013.236 1.807.696 2.381.472.564 1.123.844 1.955.841.8-.003 1.423-.293 1.869-.87.457-.579.683-1.374.679-2.387-.003-.982-.241-1.76-.712-2.334zm10.412-5.155c-.085.675-.33 1.222-.733 1.64-.393.407-.925.621-1.596.642-.651.02-1.206-.165-1.667-.556-.45-.402-.728-.927-.833-1.575l.815-.025c.272.824.818 1.223 1.639 1.197.789-.024 1.309-.457 1.56-1.297l.815-.026zm-3.738 11.515l-1.743.054-.258-8.252 1.36-.042.21 6.732h.032l3.5-6.85 1.743-.054.258 8.252-1.36.043-.21-6.733-.032.001-3.5 6.849zm17.035-7.553l.09 1.39-1.519 1.315 1.676 1.143.087 1.357-2.55-1.76-.089-1.39 2.305-2.055zm-3.097.199l.087 1.357-1.566 1.335 1.724 1.14.09 1.389-2.601-1.805-.087-1.357 2.353-2.06zm13.961-5.777l-3.275 5.842 4.518 5.484-1.817.166-3.485-4.39-2.745 4.958-1.721.157 3.466-6.212-4.246-5.156 1.8-.164 3.251 4.105 2.549-4.634 1.705-.156z" fill="#fff"/><path d="M207.982 32.148l.123 1.05a2.564 2.564 0 01-.903.266c-.773.09-1.218-.266-1.333-1.069-.672.96-1.612 1.51-2.82 1.651-.805.094-1.47-.037-1.995-.395-.514-.358-.814-.898-.898-1.618-.171-1.462.699-2.429 2.609-2.899.125-.036.308-.079.549-.129.909-.213 1.462-.401 1.657-.564.224-.198.312-.504.264-.917-.106-.9-.778-1.278-2.018-1.133-.635.074-1.102.263-1.399.566-.299.293-.445.74-.44 1.34l-1.319.155c-.081-.882.151-1.602.698-2.16.547-.558 1.35-.899 2.41-1.023 1.155-.135 2.044.03 2.667.494.2.148.359.355.476.62.116.266.191.488.222.667.031.168.067.427.107.777.047.403.108 1.013.182 1.831.075.819.135 1.429.182 1.832.035.296.097.504.186.622.098.107.253.148.465.123.085-.01.194-.039.328-.087zm-2.548-2.923c-.087.085-.18.16-.28.226-.1.065-.233.123-.398.175-.156.05-.264.09-.325.119-.052.016-.187.054-.406.111-.22.048-.335.072-.345.073-.324.08-.537.138-.641.172-.094.021-.28.086-.557.194-.267.106-.453.214-.558.323a1.681 1.681 0 00-.3.47 1.278 1.278 0 00-.083.67c.05.424.232.74.547.95.325.21.742.285 1.25.225a2.829 2.829 0 001.665-.775c.464-.44.666-.92.605-1.44l-.174-1.493zm10.155-5.372l1.171 8.172-1.346.193-1.001-6.985-2.914.418.406 3.627c.147 1.25.05 2.186-.292 2.806-.342.62-.83.976-1.464 1.067-.39.056-.721.044-.991-.036l-.157-1.093c.148.054.391.057.729.009.317-.046.562-.253.735-.623.183-.382.226-.98.131-1.797l-.566-4.961 5.559-.797zm3.597 7.807l-1.388-8.138 3.769-.643c.536-.091 1.002-.122 1.397-.092.392.02.757.158 1.093.414.336.257.548.648.638 1.173.137.8-.163 1.451-.9 1.956l.003.015c.5.013.917.174 1.251.485.333.3.545.719.636 1.255.119.694-.015 1.306-.4 1.837-.386.531-.941.859-1.667.983l-4.432.756zm2.799-5.476c.557-.095.936-.252 1.137-.47.21-.23.284-.524.223-.882-.061-.358-.222-.6-.482-.73-.26-.128-.674-.144-1.241-.047l-2.319.395.363 2.13 2.319-.396zm-2.125 1.531l.439 2.571 2.87-.49c.421-.072.725-.253.914-.545.198-.294.264-.64.195-1.04-.138-.81-.732-1.125-1.784-.945l-2.634.45zm15.739-.185l.206 1.036a2.564 2.564 0 01-.879.338c-.763.151-1.235-.168-1.414-.96-.593 1.01-1.486 1.634-2.679 1.87-.795.159-1.468.08-2.02-.234-.542-.316-.883-.83-1.024-1.542-.287-1.444.503-2.476 2.369-3.097.122-.046.301-.103.537-.172.89-.285 1.426-.517 1.608-.694.207-.216.27-.527.189-.935-.177-.89-.877-1.213-2.101-.97-.628.125-1.078.35-1.35.677-.275.315-.385.772-.331 1.37l-1.303.26c-.151-.873.023-1.61.524-2.21.501-.599 1.274-1.003 2.32-1.21 1.141-.227 2.04-.134 2.698.279.212.132.386.326.524.581.137.255.229.471.275.647.044.165.1.42.169.766.079.397.188 1 .327 1.81s.248 1.414.327 1.812c.058.292.136.494.235.605.106.099.264.127.473.086a1.54 1.54 0 00.32-.113zm-2.773-2.711c-.08.092-.167.174-.261.247a1.603 1.603 0 01-.383.207c-.151.063-.255.11-.314.144-.05.02-.182.069-.396.144-.215.064-.328.098-.339.1a11.3 11.3 0 00-.624.222 5.063 5.063 0 00-.54.238c-.258.127-.435.249-.531.366a1.72 1.72 0 00-.261.492 1.274 1.274 0 00-.029.675c.083.419.29.72.62.904.341.183.762.224 1.264.124a2.833 2.833 0 001.599-.904c.427-.477.59-.971.488-1.484l-.293-1.475zm6.211-3.964l2.855 1.391.299 1.327-2.002 2.402-.298-1.327 1.325-1.545-1.87-.875-.309-1.373zM236 21.57l2.798 1.355.299 1.327-1.959 2.376-.298-1.327 1.297-1.522-1.835-.867L236 21.57z" fill="#fff"/></svg>