<?xml version="1.0" standalone="no"?>
<!DOCTYPE svg PUBLIC "-//W3C//DTD SVG 20010904//EN"
 "http://www.w3.org/TR/2001/REC-SVG-20010904/DTD/svg10.dtd">
<svg version="1.0" xmlns="http://www.w3.org/2000/svg"
 width="96.000000pt" height="96.000000pt" viewBox="0 0 96.000000 96.000000"
 preserveAspectRatio="xMidYMid meet">
<metadata>
Created by potrace 1.11, written by Peter Selinger 2001-2013
</metadata>
<g transform="translate(0.000000,96.000000) scale(0.100000,-0.100000)"
fill="#000000" stroke="none">
<path d="M341 941 c-117 -44 -202 -135 -235 -252 -20 -73 -19 -345 2 -409 79
-236 356 -333 563 -197 104 68 171 202 162 325 -2 37 -3 76 -2 87 1 11 1 57 1
102 0 70 -5 90 -31 145 -37 78 -104 146 -179 183 -77 38 -202 45 -281 16z
m260 -82 c78 -39 142 -123 163 -214 l7 -30 -37 35 c-21 19 -44 41 -52 48 -8 8
-40 25 -71 39 -46 21 -72 26 -146 27 -83 1 -96 -2 -157 -32 -36 -18 -85 -51
-108 -75 l-42 -42 7 35 c24 117 129 218 249 239 53 9 137 -4 187 -30z m-62
-170 c96 -20 206 -126 206 -199 0 -76 -110 -178 -216 -201 -133 -29 -277 39
-338 158 -17 34 -18 42 -5 71 32 76 104 142 186 167 53 17 102 18 167 4z
m-248 -434 c137 -71 304 -49 422 56 l57 50 -7 -33 c-7 -39 -47 -113 -77 -146
-26 -29 -93 -69 -138 -83 -92 -28 -211 0 -289 69 -41 36 -85 112 -92 160 l-5
33 47 -44 c26 -25 63 -53 82 -62z"/>
<path d="M425 619 c-17 -5 -44 -22 -60 -39 -26 -27 -30 -39 -30 -90 0 -51 4
-63 29 -89 67 -70 167 -60 216 22 64 103 -36 228 -155 196z"/>
</g>
</svg>
