<svg width="420" height="420" fill="none" xmlns="http://www.w3.org/2000/svg"><path fill="#FC8B4C" d="M280 0h140v140H280z"/><path fill="#fff" d="M345.834 45h8.333v50h-8.333z"/><path fill="#fff" d="M329.375 55.269l5.893-5.892 35.355 35.355-5.892 5.892z"/><path fill="#fff" d="M370.625 55.269l-5.892-5.893-35.356 35.356 5.893 5.892z"/><path fill="#fff" d="M325 74.167v-8.333h50v8.333z"/><circle r="5" transform="matrix(-1 0 0 1 350 120)" fill="#fff"/><circle r="5" transform="matrix(-1 0 0 1 400 70)" fill="#fff"/><circle r="5" transform="matrix(-1 0 0 1 300 70)" fill="#fff"/><circle r="5" transform="matrix(-1 0 0 1 350 20)" fill="#fff"/><path d="M348 140l-68-57v57h68z" fill="#236967"/><g clip-path="url(#clip0)"><path fill="#FFCC1A" d="M280 140h140v140H280z"/><circle cx="299.96" cy="279.96" r="19.96" fill="#FDE9D4"/><circle cx="333.694" cy="279.96" r="19.96" fill="#FDE9D4"/><circle cx="367.429" cy="279.96" r="19.96" fill="#FDE9D4"/><circle cx="400.04" cy="279.96" r="19.96" fill="#FDE9D4"/><path d="M280 280a69.997 69.997 0 0120.503-49.497 69.997 69.997 0 0198.994 0A69.997 69.997 0 01420 280h-12.892a57.108 57.108 0 10-114.216 0H280z" fill="#FDE9D4"/><circle cx="350" cy="174" r="20" fill="#FC8B4C"/></g><path fill="#236967" d="M280 280h140v140H280z"/><circle cx="350.5" cy="334.5" r="30.5" fill="#FFCC1A"/><circle cx="350.5" cy="365.5" r="30.5" fill="#fff"/><path d="M321.394 334.5a52.124 52.124 0 0029.106-29.106 52.124 52.124 0 0029.106 29.106 52.124 52.124 0 00-29.106 29.106 52.124 52.124 0 00-29.106-29.106z" stroke="#fff"/><path d="M321.394 365.5a52.124 52.124 0 0029.106-29.106 52.124 52.124 0 0029.106 29.106 52.124 52.124 0 00-29.106 29.106 52.124 52.124 0 00-29.106-29.106z" stroke="#FDD503"/><g clip-path="url(#clip1)"><path fill="#FDE9D4" d="M0 280V140h140v140z"/><circle cx="143.999" cy="260.04" r="19.96" transform="rotate(-90 143.999 260.04)" fill="#FFCC1A"/><circle cx="143.999" cy="226.305" r="19.96" transform="rotate(-90 143.999 226.305)" fill="#FFCC1A"/><circle cx="143.999" cy="192.571" r="19.96" transform="rotate(-90 143.999 192.571)" fill="#FFCC1A"/><circle cx="143.999" cy="159.959" r="19.96" transform="rotate(-90 143.999 159.959)" fill="#FFCC1A"/><path d="M140 280a69.999 69.999 0 01-49.498-119.497A69.999 69.999 0 01140 140v12.892a57.107 57.107 0 100 114.216V280z" fill="#FFCC1A"/><circle cx="34" cy="210" r="20" transform="rotate(-90 34 210)" fill="#FC8B4C"/></g><path fill="#FDE9D4" d="M140 0h140v140H140z"/><circle cx="230" cy="90" r="50" transform="rotate(-45 230 90)" fill="#FFCC1A"/><path d="M194.645 54.645a50 50 0 1070.71 70.71L230 90l-35.355-35.355z" fill="#000"/><path d="M226 140l54-57v57h-54z" fill="#236967"/><path d="M0 100C0 44.772 44.772 0 100 0h40v140H0v-40z" fill="#FE7167"/><path d="M23 100c0-42.526 34.474-77 77-77h17v94H23v-17z" fill="#FDE9D4" stroke="#000" stroke-width="6"/><path fill="#000" d="M140 280h140v140H140z"/><path fill="#fff" d="M140.91 291.517l10.607-10.607 42.426 42.427-10.607 10.606z"/><path fill="#fff" d="M151.518 333.943l-10.607-10.607 42.427-42.426 10.606 10.607z"/><path d="M210 358l33 62h-66l33-62z" fill="#FE7167"/><path d="M211 346a33.852 33.852 0 0020 20 33.852 33.852 0 00-20 20 33.852 33.852 0 00-20-20 33.852 33.852 0 0020-20z" fill="#FDE9D4"/><g clip-path="url(#clip2)"><path fill="#FDE9D4" d="M140 140h140v140H140z"/><path d="M276 240c0-55.228-44.772-100-100-100h-40v140h140v-40z" fill="#FE7167"/><path d="M206 210c0-38.66-31.34-70-70-70v140c38.66 0 70-31.34 70-70z" fill="#000"/><path fill="#fff" d="M231 210l-35.355-35.355L160.289 210l35.356 35.355z"/><circle r="7" transform="matrix(-1 0 0 1 176 210)" fill="#000"/></g><path d="M280 140a50.776 50.776 0 0030 30 50.776 50.776 0 00-30 30 50.776 50.776 0 00-30-30 50.776 50.776 0 0030-30z" fill="#FFCC1A"/><defs><clipPath id="clip0"><path fill="#fff" transform="translate(280 140)" d="M0 0h140v140H0z"/></clipPath><clipPath id="clip1"><path fill="#fff" transform="rotate(-90 140 140)" d="M0 0h140v140H0z"/></clipPath><clipPath id="clip2"><path fill="#fff" transform="translate(140 140)" d="M0 0h140v140H0z"/></clipPath></defs></svg>