<svg width="44" height="44" fill="none" xmlns="http://www.w3.org/2000/svg"><mask id="path-1-outside-1" maskUnits="userSpaceOnUse" x="15" y="18.351" width="13" height="8" fill="#000"><path fill="#fff" d="M15 18.351h13v8H15z"/><path d="M26.511 24.18c-.239-.28-.51-.532-.77-.775a24.935 24.935 0 01-.28-.262c-.122-.118-.183-.201-.189-.263-.006-.061.036-.151.133-.284.146-.2.3-.401.45-.596.134-.172.272-.35.404-.53l.03-.04c.257-.35.524-.713.666-1.154.041-.126.084-.314-.018-.478-.103-.164-.292-.213-.426-.235a1.099 1.099 0 00-.184-.012l-1.672-.002c-.289-.005-.49.13-.599.4a9.45 9.45 0 01-.31.703c-.229.458-.52.985-.941 1.424l-.02.02a.556.556 0 01-.099.09c-.046-.028-.098-.189-.096-.273v-.007l-.001-1.896c0-.01 0-.02-.002-.029-.038-.27-.11-.542-.547-.626a.224.224 0 00-.042-.004h-1.74c-.326 0-.5.147-.638.306-.04.047-.147.17-.093.321.055.153.22.183.273.193.19.036.288.14.318.342.06.39.067.808.023 1.314-.012.136-.035.24-.072.325a.245.245 0 01-.026.047.26.26 0 01-.047-.026c-.133-.09-.233-.228-.33-.363a8.849 8.849 0 01-.997-1.814c-.117-.28-.336-.437-.617-.441a42.354 42.354 0 00-1.514 0c-.228.005-.387.075-.475.21-.087.135-.084.308.01.512.67 1.464 1.279 2.528 1.973 3.452.489.65.981 1.102 1.549 1.42.596.336 1.27.5 2.05.5.088 0 .179-.002.27-.006.482-.022.678-.21.699-.67.012-.244.04-.44.135-.612.027-.048.057-.08.081-.086.025-.006.07.009.12.04.091.059.17.138.235.207l.195.213c.137.15.277.305.425.453.334.334.719.487 1.145.455h1.544a.516.516 0 00.419-.263.657.657 0 00-.005-.636 3.19 3.19 0 00-.397-.563zm.02.988c-.02.037-.047.044-.06.045h-1.548c-.301.025-.557-.079-.805-.327-.14-.14-.278-.291-.411-.437l-.199-.217a1.66 1.66 0 00-.32-.277c-.198-.127-.362-.123-.465-.097a.567.567 0 00-.358.296c-.144.258-.176.536-.189.799-.007.16-.035.203-.046.213-.015.014-.066.04-.235.047-.812.037-1.493-.105-2.082-.437-.514-.288-.963-.702-1.414-1.302-.676-.899-1.27-1.939-1.927-3.373A.363.363 0 0116.44 20a.38.38 0 01.107-.013c.478-.01.968-.01 1.499 0 .073 0 .155.022.218.172a9.263 9.263 0 001.045 1.901c.108.15.243.336.44.47.182.121.33.115.42.089.092-.026.22-.1.305-.298.055-.129.088-.273.105-.455a5.836 5.836 0 00-.027-1.416c-.045-.304-.205-.523-.457-.636a.35.35 0 01.165-.032h1.716c.096.021.116.046.122.055a.5.5 0 01.054.19l.001 1.878c-.004.18.085.58.389.69a.097.097 0 00.008.002c.276.088.459-.103.557-.206l.017-.018c.462-.482.773-1.044 1.016-1.53.127-.25.234-.51.325-.734.045-.112.086-.13.185-.128h.004l1.674.001c.039 0 .08 0 .11.006.08.013.113.03.124.036a.338.338 0 01-.023.123c-.122.375-.356.694-.605 1.032l-.03.04a25.6 25.6 0 01-.396.523c-.152.196-.31.4-.458.605-.318.436-.29.725.107 1.105.094.09.19.18.283.266.264.246.513.477.735.739.117.138.249.303.345.486.05.095.038.182.012.226z"/></mask><path d="M26.511 24.18c-.239-.28-.51-.532-.77-.775a24.935 24.935 0 01-.28-.262c-.122-.118-.183-.201-.189-.263-.006-.061.036-.151.133-.284.146-.2.3-.401.45-.596.134-.172.272-.35.404-.53l.03-.04c.257-.35.524-.713.666-1.154.041-.126.084-.314-.018-.478-.103-.164-.292-.213-.426-.235a1.099 1.099 0 00-.184-.012l-1.672-.002c-.289-.005-.49.13-.599.4a9.45 9.45 0 01-.31.703c-.229.458-.52.985-.941 1.424l-.02.02a.556.556 0 01-.099.09c-.046-.028-.098-.189-.096-.273v-.007l-.001-1.896c0-.01 0-.02-.002-.029-.038-.27-.11-.542-.547-.626a.224.224 0 00-.042-.004h-1.74c-.326 0-.5.147-.638.306-.04.047-.147.17-.093.321.055.153.22.183.273.193.19.036.288.14.318.342.06.39.067.808.023 1.314-.012.136-.035.24-.072.325a.245.245 0 01-.026.047.26.26 0 01-.047-.026c-.133-.09-.233-.228-.33-.363a8.849 8.849 0 01-.997-1.814c-.117-.28-.336-.437-.617-.441a42.354 42.354 0 00-1.514 0c-.228.005-.387.075-.475.21-.087.135-.084.308.01.512.67 1.464 1.279 2.528 1.973 3.452.489.65.981 1.102 1.549 1.42.596.336 1.27.5 2.05.5.088 0 .179-.002.27-.006.482-.022.678-.21.699-.67.012-.244.04-.44.135-.612.027-.048.057-.08.081-.086.025-.006.07.009.12.04.091.059.17.138.235.207l.195.213c.137.15.277.305.425.453.334.334.719.487 1.145.455h1.544a.516.516 0 00.419-.263.657.657 0 00-.005-.636 3.19 3.19 0 00-.397-.563zm.02.988c-.02.037-.047.044-.06.045h-1.548c-.301.025-.557-.079-.805-.327-.14-.14-.278-.291-.411-.437l-.199-.217a1.66 1.66 0 00-.32-.277c-.198-.127-.362-.123-.465-.097a.567.567 0 00-.358.296c-.144.258-.176.536-.189.799-.007.16-.035.203-.046.213-.015.014-.066.04-.235.047-.812.037-1.493-.105-2.082-.437-.514-.288-.963-.702-1.414-1.302-.676-.899-1.27-1.939-1.927-3.373A.363.363 0 0116.44 20a.38.38 0 01.107-.013c.478-.01.968-.01 1.499 0 .073 0 .155.022.218.172a9.263 9.263 0 001.045 1.901c.108.15.243.336.44.47.182.121.33.115.42.089.092-.026.22-.1.305-.298.055-.129.088-.273.105-.455a5.836 5.836 0 00-.027-1.416c-.045-.304-.205-.523-.457-.636a.35.35 0 01.165-.032h1.716c.096.021.116.046.122.055a.5.5 0 01.054.19l.001 1.878c-.004.18.085.58.389.69a.097.097 0 00.008.002c.276.088.459-.103.557-.206l.017-.018c.462-.482.773-1.044 1.016-1.53.127-.25.234-.51.325-.734.045-.112.086-.13.185-.128h.004l1.674.001c.039 0 .08 0 .11.006.08.013.113.03.124.036a.338.338 0 01-.023.123c-.122.375-.356.694-.605 1.032l-.03.04a25.6 25.6 0 01-.396.523c-.152.196-.31.4-.458.605-.318.436-.29.725.107 1.105.094.09.19.18.283.266.264.246.513.477.735.739.117.138.249.303.345.486.05.095.038.182.012.226z" fill="#000"/><path d="M26.511 24.18c-.239-.28-.51-.532-.77-.775a24.935 24.935 0 01-.28-.262s0 0 0 0c-.122-.118-.183-.201-.189-.263-.006-.061.036-.151.133-.284.146-.2.3-.401.45-.596.134-.172.272-.35.404-.53l.03-.04c.257-.35.524-.713.666-1.154.041-.126.084-.314-.018-.478-.103-.164-.292-.213-.426-.235a1.099 1.099 0 00-.184-.012l-1.672-.002c-.289-.005-.49.13-.599.4a9.45 9.45 0 01-.31.703c-.229.458-.52.985-.941 1.424l-.02.02a.556.556 0 01-.099.09c-.046-.028-.098-.189-.096-.273v-.007l-.001-1.896c0-.01 0-.02-.002-.029-.038-.27-.11-.542-.547-.626a.224.224 0 00-.042-.004h-1.74c-.326 0-.5.147-.638.306-.04.047-.147.17-.093.321.055.153.22.183.273.193.19.036.288.14.318.342.06.39.067.808.023 1.314-.012.136-.035.24-.072.325a.245.245 0 01-.026.047.26.26 0 01-.047-.026c-.133-.09-.233-.228-.33-.363a8.849 8.849 0 01-.997-1.814c-.117-.28-.336-.437-.617-.441a42.354 42.354 0 00-1.514 0c-.228.005-.387.075-.475.21-.087.135-.084.308.01.512.67 1.464 1.279 2.528 1.973 3.452.489.65.981 1.102 1.549 1.42.596.336 1.27.5 2.05.5.088 0 .179-.002.27-.006.482-.022.678-.21.699-.67.012-.244.04-.44.135-.612.027-.048.057-.08.081-.086.025-.006.07.009.12.04.091.059.17.138.235.207l.195.213c.137.15.277.305.425.453.334.334.719.487 1.145.455h1.53s0 0 0 0h.014a.516.516 0 00.419-.263.657.657 0 00-.005-.636 3.19 3.19 0 00-.397-.563zm.02.988c-.02.037-.047.044-.06.045h-1.53s0 0 0 0h-.018c-.301.025-.557-.079-.805-.327-.14-.14-.278-.291-.411-.437l-.199-.217a1.66 1.66 0 00-.32-.277c-.198-.127-.362-.123-.465-.097a.567.567 0 00-.358.296c-.144.258-.176.536-.189.799-.007.16-.035.203-.046.213-.015.014-.066.04-.235.047-.812.037-1.493-.105-2.082-.437-.514-.288-.963-.702-1.414-1.302-.676-.899-1.27-1.939-1.927-3.373A.363.363 0 0116.44 20a.38.38 0 01.107-.013c.478-.01.968-.01 1.499 0 .073 0 .155.022.218.172a9.263 9.263 0 001.045 1.901c.108.15.243.336.44.47.182.121.33.115.42.089.092-.026.22-.1.305-.298.055-.129.088-.273.105-.455a5.836 5.836 0 00-.027-1.416c-.045-.304-.205-.523-.457-.636a.35.35 0 01.165-.032h1.716c.096.021.116.046.122.055a.5.5 0 01.054.19l.001 1.878c-.004.18.085.58.389.69a.097.097 0 00.008.002c.276.088.459-.103.557-.206l.017-.018c.462-.482.773-1.044 1.016-1.53.127-.25.234-.51.325-.734.045-.112.086-.13.185-.128h.004l1.674.001c.039 0 .08 0 .11.006.08.013.113.03.124.036a.338.338 0 01-.023.123c-.122.375-.356.694-.605 1.032l-.03.04a25.6 25.6 0 01-.396.523c-.152.196-.31.4-.458.605-.318.436-.29.725.107 1.105.094.09.19.18.283.266.264.246.513.477.735.739.117.138.249.303.345.486.05.095.038.182.012.226z" stroke="#000" stroke-width=".4" mask="url(#path-1-outside-1)"/><circle cx="22" cy="22" r="9.5" stroke="#000"/></svg>