<svg width="44" height="44" fill="none" xmlns="http://www.w3.org/2000/svg"><path d="M14.533 27.6l.447.224.138-.276-.185-.248-.4.3zm1.866 1.867l.3-.4-.247-.186-.276.139.223.447zm-3.733 1.866l-.447-.223a.5.5 0 00.671.67l-.224-.447zM18 18l-.277-.416A.5.5 0 0017.5 18h.5zm8 8v.5a.5.5 0 00.416-.223L26 26zm-5.661-7.3l.493-.081-.493.082zm.186 1.116l-.493.083.493-.083zm-.576 1.329l.277.416-.277-.416zm5.35 2.516l.082-.493-.082.493zm-1.115-.186l-.083.493.083-.493zm-1.329.576l-.416-.278.416.278zM12.166 22c0 2.212.732 4.256 1.967 5.9l.8-.6a8.791 8.791 0 01-1.767-5.3h-1zM22 12.166c-5.431 0-9.834 4.402-9.834 9.833h1A8.833 8.833 0 0122 13.167v-1zM31.833 22c0-5.43-4.402-9.833-9.833-9.833v1A8.833 8.833 0 0130.833 22h1zM22 31.833c5.43 0 9.833-4.402 9.833-9.833h-1A8.833 8.833 0 0122 30.833v1zm-5.901-1.966a9.792 9.792 0 005.9 1.966v-1a8.792 8.792 0 01-5.3-1.766l-.6.8zM12.89 31.78l3.733-1.867-.447-.894-3.733 1.866.447.895zm1.196-4.404l-1.867 3.733.895.447 1.866-3.733-.894-.447zM17.5 18v1.333h1V18h-1zm7.166 8.5H26v-1h-1.334v1zM17.5 19.333a7.167 7.167 0 007.166 7.167v-1a6.167 6.167 0 01-6.166-6.167h-1zm.777-.917l.284-.19-.554-.831-.285.19.555.831zm1.569.367l.186 1.116.986-.165-.186-1.115-.986.164zm-.174 1.946l-1.283.855.555.832 1.283-.855-.555-.832zm.36-.83a.833.833 0 01-.36.83l.555.832c.6-.4.91-1.115.791-1.827l-.986.165zm-1.47-1.672a.833.833 0 011.284.556l.986-.164a1.833 1.833 0 00-2.825-1.224l.554.832zm7.854 8.05l.19-.284-.833-.554-.19.284.833.554zm-1.035-3.11l-1.115-.185-.165.986 1.116.186.164-.986zm-2.942.606l-.855 1.283.832.555.855-1.283-.832-.555zm1.827-.791a1.833 1.833 0 00-1.827.791l.832.555a.833.833 0 01.83-.36l.165-.986zm2.34 3.011a1.833 1.833 0 00-1.225-2.825l-.164.986c.596.1.892.781.556 1.285l.832.554z" fill="#000"/></svg>