<svg width="21" height="18" viewBox="0 0 21 18" fill="none" xmlns="http://www.w3.org/2000/svg">
<path fill-rule="evenodd" clip-rule="evenodd" d="M11 3.08072V6.95458L10.0988 7.044C6.5266 7.3986 3.56837 9.8439 2.46437 13.1386C4.59874 11.5505 7.30036 10.7313 10.0973 11.0048L11 11.0931V14.9195L18.3992 9.0001L11 3.08072ZM9 2.04041C9 0.782648 10.4549 0.0833986 11.437 0.869109L20.1367 7.8288C20.8873 8.4293 20.8873 9.5709 20.1367 10.1714L11.437 17.1311C10.4549 17.9168 9 17.2175 9 15.9598V12.953C6.22923 12.9636 3.64366 14.2668 1.96762 16.3818C1.34772 17.164 -0.0283052 16.7868 0.00492476 15.668C0.160685 10.4241 3.98471 6.10256 9 5.18107V2.04041Z" fill="#8D80D1"/>
</svg>
