<svg width="35" height="33" viewBox="0 0 35 33" fill="none" xmlns="http://www.w3.org/2000/svg">
<path fill-rule="evenodd" clip-rule="evenodd" d="M31.0995 15.1101C32.8402 15.3585 34.2076 16.7103 34.4588 18.4311C34.7717 20.5745 33.2678 22.563 31.0995 22.8724C28.9313 23.1817 26.9199 21.6949 26.6069 19.5514C26.294 17.408 27.798 15.4195 29.9662 15.1101V14.0934C29.9662 11.8997 28.3138 10.1161 26.2829 10.1161C24.3098 10.1161 22.6563 11.8459 22.5997 13.9718V24.9845C22.5997 29.126 19.4224 32.5 15.5164 32.5C11.6105 32.5 8.43321 29.1299 8.43321 24.9845V24.0283C7.61156 24.0283 6.73324 23.4395 6.73324 21.7876V20.3787C3.09813 19.4617 0.5 16.3734 0.5 12.8694V11.7042H1.63332V4.42179C1.63707 3.05977 2.63141 1.89787 3.98948 1.66847C4.14701 1.18776 4.51406 0.802147 4.98977 0.617355C5.86767 0.276412 6.85903 0.703624 7.20392 1.57149C7.5488 2.43936 7.11672 3.41941 6.23876 3.76035C5.36079 4.10129 4.36949 3.67415 4.02461 2.80621C3.28498 3.00305 2.76989 3.66463 2.76663 4.42179V11.7042H4.4666V12.8884C4.51017 14.8354 5.82864 16.5285 7.72149 17.068C8.73545 17.386 9.82414 17.386 10.8381 17.068C12.7331 16.5303 14.0546 14.837 14.0998 12.8884V11.7042H15.2331L15.2076 4.41675C15.2017 3.67058 14.6988 3.01768 13.9729 2.8135C13.7864 3.27215 13.4041 3.6257 12.9287 3.77912C12.0409 4.06565 11.0863 3.58641 10.7965 2.70881C10.5067 1.83114 10.9915 0.887435 11.8792 0.60097C12.767 0.314435 13.7216 0.793674 14.0114 1.67128C15.3548 1.91153 16.3344 3.06383 16.3426 4.41339L16.3664 11.7042H17.4997V12.8722C17.4997 16.3722 14.9033 19.4594 11.2665 20.3787V21.7876C11.2665 23.4395 10.3882 24.0283 9.56652 24.0283V24.9845C9.56652 28.5098 12.2355 31.3796 15.5164 31.3796C18.7974 31.3796 21.4663 28.5137 21.4663 24.9845V13.945L21.4992 13.9394H21.4663C21.544 11.2124 23.7035 8.99403 26.2829 8.99403C28.9389 8.99403 31.0995 11.2818 31.0995 14.0917V15.1101ZM11.8332 2.18105C11.8332 2.49041 12.0869 2.74123 12.3998 2.74123C12.7128 2.74123 12.9665 2.49041 12.9665 2.18105C12.9665 1.87168 12.7128 1.62086 12.3998 1.62086C12.0869 1.62086 11.8332 1.87168 11.8332 2.18105ZM6.16658 2.18105C6.16658 1.87168 5.91286 1.62086 5.59992 1.62086C5.28698 1.62086 5.03326 1.87168 5.03326 2.18105C5.03326 2.49041 5.28698 2.74123 5.59992 2.74123C5.91286 2.74123 6.16658 2.49041 6.16658 2.18105ZM1.63332 12.8246V12.8694C1.63332 15.9857 4.06314 18.7278 7.41322 19.39C7.67176 19.4428 7.93299 19.4818 8.19578 19.507C8.99406 19.5859 9.79985 19.5468 10.5865 19.3911C13.9366 18.7278 16.3664 15.9857 16.3664 12.8694V12.8246H15.2331V12.8884C15.1898 15.3241 13.5498 17.449 11.1849 18.1335C9.94626 18.5212 8.61673 18.5212 7.37809 18.1335C5.01435 17.4481 3.37579 15.3232 3.33329 12.8884V12.8246H1.63332ZM7.86655 21.7876C7.86655 22.1237 7.92322 22.9079 8.43321 22.9079H9.56596C10.0759 22.9079 10.1326 22.1237 10.1326 21.7876V20.5988C10.1086 20.6019 10.084 20.6037 10.0595 20.6056C10.0384 20.6072 10.0173 20.6088 9.99662 20.6112C9.95678 20.6154 9.91615 20.6188 9.87635 20.6221C9.85784 20.6237 9.83951 20.6253 9.82152 20.6269C9.55519 20.6504 9.28546 20.6666 9.01347 20.6666H8.98513C8.71257 20.6661 8.44228 20.6504 8.17425 20.6269C8.16004 20.6256 8.14584 20.6244 8.13164 20.6231C8.08917 20.6195 8.04671 20.6158 8.00425 20.6112C7.98597 20.6094 7.96759 20.608 7.94924 20.6065C7.92151 20.6044 7.89383 20.6022 7.86655 20.5988V21.7876ZM27.6996 18.9866C27.6996 20.5335 28.9681 21.7876 30.5329 21.7876C32.0968 21.7857 33.3643 20.5328 33.3661 18.9866C33.3661 17.4397 32.0976 16.1857 30.5329 16.1857C28.9681 16.1857 27.6996 17.4397 27.6996 18.9866ZM28.833 18.9867C28.833 18.0585 29.5941 17.3061 30.533 17.3061C31.4719 17.3061 32.233 18.0585 32.233 18.9867C32.233 19.9148 31.4719 20.6672 30.533 20.6672C29.5941 20.6672 28.833 19.9148 28.833 18.9867ZM29.9663 18.9867C29.9663 19.296 30.22 19.5468 30.533 19.5468C30.8459 19.5468 31.0996 19.296 31.0996 18.9867C31.0996 18.6773 30.8459 18.4265 30.533 18.4265C30.22 18.4265 29.9663 18.6773 29.9663 18.9867Z" fill="#2682D6"/>
</svg>
