<svg width="80" height="20" fill="none" xmlns="http://www.w3.org/2000/svg"><path d="M0 0h20v20H0V0z" fill="#303540"/><path d="M7.964 7.964a2.867 2.867 0 000 4.036A2.867 2.867 0 0012 12a2.867 2.867 0 000-4.036c-1.107-1.107-2.893-1.107-4.036 0z" fill="#FEFEFE"/><path d="M14.643 5.571v4.393a4.65 4.65 0 01-4.679 4.679H5.571c2.536 2.428 6.5 2.393 8.965-.107 2.464-2.465 2.5-6.429.107-8.965zm-9.286 4.465a4.65 4.65 0 014.679-4.679h4.393c-2.536-2.429-6.5-2.393-8.965.107-2.464 2.5-2.5 6.464-.107 8.964v-4.392z" fill="#fff"/><path d="M20 0h60v20H20V0z" fill="#2E6BE5"/><path d="M30.107 10.821c-1.286-.357-2.25-1.392-2.25-2.892C27.857 6.07 29.393 5 31.035 5h7.822v2.25h-4.572V9h3.536v2.179h-3.535v3.107h-2.43V7.179H31c-.393 0-.857.25-.857.75 0 .392.25.642.571.785l-.607 2.107zM40 14.286V5h2.5v9.286H40zm6.821-7c1.857 0 3.179.893 3.179 2.75v4.25h-2.107v-.715c-.393.715-1.286.929-2.143.929-1.5 0-2.357-1.071-2.357-2.286 0-1.035.821-2.285 2.857-2.285h1.464V9.82c0-.785-.286-1.071-.928-1.071-.572 0-.93.286-.965.821h-2.143c.108-1.321 1.179-2.285 3.143-2.285zm.929 4.393v-.393h-1.036c-.607 0-1.071.321-1.071.785 0 .5.357.75.964.75.714 0 1.143-.5 1.143-1.142zM57.285 8.5c.465-.857 1.143-1.179 2.036-1.179 1.715 0 2.465 1.072 2.465 2.786v4.179h-2.322V10.57c0-.785-.143-1.25-.821-1.25-.75 0-.965.572-.965 1.322v3.643h-2.321V10.57c0-.785-.179-1.25-.893-1.25-.75 0-1 .643-1 1.429v3.571h-2.393V7.5h2.25v1c.465-.964 1.286-1.214 2.036-1.214.893 0 1.536.357 1.928 1.214zm7.858-.071c.464-.858 1.321-1.143 2.142-1.143 1.786 0 2.858 1.5 2.858 3.607 0 2.143-1.108 3.607-2.858 3.607-.82 0-1.642-.25-2.07-.929v3.215h-2.358V7.5h2.286v.929zm1.285 4.214c1 0 1.393-.822 1.393-1.75 0-.929-.357-1.714-1.393-1.714-.964 0-1.392.785-1.392 1.714.035.928.428 1.75 1.392 1.75z" fill="#fff"/></svg>