<svg width="105" height="20" fill="none" xmlns="http://www.w3.org/2000/svg"><g clip-path="url(#clip0)"><path d="M3.88 14.813a20.2 20.2 0 011.579 2.324c.403.762.57 1.28.865 2.197.18.508.344.659.694.659.383 0 .556-.258.69-.656.278-.867.497-1.529.841-2.154.676-1.207 1.516-2.28 2.341-3.311.223-.292 1.668-1.992 2.318-3.333 0 0 .8-1.474.8-3.532 0-1.924-.789-3.26-.789-3.26l-2.269.607-1.378 3.622-.341.499-.068.09-.09.114-.16.18-.228.228-1.227.997-3.068 1.768-.51 2.961z" fill="#34A853"/><path d="M.713 10.291c.75 1.707 2.193 3.207 3.17 4.524l5.19-6.134s-.732.954-2.058.954a2.655 2.655 0 01-2.67-2.66c0-1.018.613-1.718.613-1.718L1.436 6.2l-.723 4.092z" fill="#FBBC04"/><path d="M9.13.312c1.723.554 3.198 1.718 4.09 3.434L9.075 8.678s.613-.712.613-1.724c0-1.518-1.281-2.653-2.666-2.653-1.31 0-2.061.953-2.061.953V2.147L9.13.312z" fill="#4285F4"/><path d="M1.664 2.49c1.03-1.228 2.84-2.494 5.338-2.494 1.211 0 2.124.317 2.124.317l-4.17 4.943H2.002L1.664 2.49z" fill="#1A73E8"/><path d="M.713 10.29S.024 8.946.024 6.996c0-1.843.718-3.454 1.64-4.505l3.294 2.767L.713 10.29z" fill="#EA4335"/><path d="M71.603 16.215V5.705h1.354l3.663 6.4h.059l3.663-6.4h1.353v10.51h-1.353V9.977l.059-1.762h-.06l-3.294 5.769h-.794l-3.294-5.77h-.06l.06 1.763v6.238h-1.356zm14.049.22c-.765 0-1.405-.22-1.92-.66-.514-.44-.772-1.023-.772-1.747 0-.786.304-1.397.912-1.842.609-.446 1.358-.668 2.246-.668.795 0 1.447.147 1.957.44v-.205c0-.529-.181-.952-.544-1.27-.362-.317-.809-.477-1.339-.477-.392 0-.747.093-1.066.276-.319.182-.537.44-.654.763l-1.236-.529c.167-.43.495-.825.985-1.196.49-.37 1.138-.55 1.942-.55.922 0 1.687.269 2.295.807.608.538.912 1.297.912 2.276V16.2h-1.294v-.998h-.06c-.54.825-1.329 1.232-2.364 1.232zm.22-1.232c.56 0 1.067-.209 1.523-.624.456-.415.684-.905.684-1.475-.382-.313-.956-.47-1.72-.47-.658 0-1.154.142-1.487.426-.333.285-.5.617-.5.998 0 .353.152.632.456.837.304.206.652.308 1.044.308zm8.569 1.232a3.072 3.072 0 01-1.478-.352c-.436-.234-.762-.528-.977-.88h-.06l.06.997v3.17h-1.354V9.009h1.295v.998h.06c.215-.352.541-.645.977-.88.436-.236.93-.353 1.478-.353.932 0 1.736.367 2.413 1.101.676.734 1.015 1.644 1.015 2.73 0 1.087-.34 1.997-1.016 2.73-.676.735-1.48 1.102-2.412 1.102h-.001zm-.22-1.232c.627 0 1.166-.238 1.617-.708.452-.47.677-1.104.677-1.886 0-.784-.225-1.416-.677-1.887-.45-.47-.99-.708-1.618-.708-.637 0-1.18.235-1.625.705-.446.47-.67 1.101-.67 1.893 0 .793.224 1.424.67 1.894.445.47.988.704 1.625.704v-.007zm7.245 1.232c-.804 0-1.469-.195-1.993-.587a3.496 3.496 0 01-1.155-1.468l1.206-.499c.382.904 1.035 1.35 1.957 1.35.421 0 .767-.093 1.037-.275.27-.183.405-.43.405-.734 0-.47-.329-.788-.986-.954l-1.456-.352a3.463 3.463 0 01-1.31-.668c-.411-.327-.618-.77-.618-1.328 0-.636.282-1.152.846-1.55.564-.396 1.234-.594 2.008-.594.637 0 1.206.145 1.707.433.49.278.869.716 1.073 1.24l-1.177.485c-.264-.636-.814-.954-1.647-.954-.402 0-.741.083-1.015.249-.274.166-.412.392-.412.676 0 .41.316.69.956.836l1.427.338c.677.156 1.177.426 1.5.807.324.382.486.813.486 1.292 0 .646-.265 1.18-.795 1.615-.529.435-1.211.646-2.049.646l.005-.004zM31.498 9.95h-5.55v1.644h3.94c-.194 2.304-2.116 3.287-3.93 3.287a4.335 4.335 0 01-3.093-1.278 4.316 4.316 0 01-1.254-3.098c0-2.488 1.93-4.404 4.351-4.404 1.868 0 2.968 1.188 2.968 1.188l1.153-1.191s-1.48-1.644-4.18-1.644c-3.438 0-6.098 2.896-6.098 6.023 0 3.064 2.503 6.053 6.186 6.053 3.24 0 5.612-2.215 5.612-5.49 0-.69-.1-1.09-.1-1.09h-.005zm4.558-1.17c-2.278 0-3.91 1.777-3.91 3.85 0 2.102 1.583 3.912 3.94 3.912 2.131 0 3.877-1.625 3.877-3.868 0-2.57-2.031-3.895-3.903-3.895l-.004.001zm.022 1.525c1.12 0 2.182.903 2.182 2.36 0 1.424-1.057 2.355-2.187 2.355-1.242 0-2.221-.993-2.221-2.367 0-1.344.968-2.348 2.226-2.348zM44.52 8.78c-2.279 0-3.911 1.777-3.911 3.85 0 2.102 1.583 3.912 3.94 3.912 2.132 0 3.877-1.625 3.877-3.868 0-2.57-2.03-3.895-3.903-3.895l-.004.001zm.022 1.525c1.12 0 2.181.903 2.181 2.36 0 1.424-1.057 2.355-2.187 2.355-1.241 0-2.22-.993-2.22-2.367 0-1.344.967-2.348 2.225-2.348zm8.311-1.525c-2.091 0-3.735 1.828-3.735 3.878 0 2.336 1.905 3.885 3.698 3.885 1.109 0 1.698-.439 2.134-.943v.765c0 1.339-.815 2.141-2.05 2.141-1.188 0-1.783-.882-1.99-1.382l-1.495.624c.53 1.119 1.597 2.286 3.498 2.286 2.08 0 3.664-1.307 3.664-4.05V9.01h-1.63v.658c-.502-.539-1.188-.89-2.098-.89l.004.001zm.15 1.522c1.026 0 2.079.873 2.079 2.364 0 1.517-1.05 2.352-2.1 2.352-1.115 0-2.153-.903-2.153-2.337 0-1.495 1.077-2.38 2.175-2.38zM63.856 8.78c-1.972 0-3.628 1.565-3.628 3.876 0 2.445 1.845 3.895 3.817 3.895 1.646 0 2.656-.899 3.258-1.704l-1.34-.892c-.348.54-.932 1.069-1.905 1.069-1.093 0-1.596-.598-1.907-1.177l5.215-2.163-.27-.629c-.505-1.24-1.68-2.274-3.232-2.274h-.008zm.068 1.493c.71 0 1.221.377 1.44.829l-3.484 1.452c-.15-1.124.918-2.281 2.044-2.281zm-6.188 6.047h1.713V4.876h-1.712V16.32z" fill="#767676"/></g><defs><clipPath id="clip0"><path fill="#fff" d="M0 0h104.286v20H0z"/></clipPath></defs></svg>