<svg width="282" height="35" fill="none" xmlns="http://www.w3.org/2000/svg"><path d="M35.524 0H0v35h35.524V0z" fill="#E13010"/><path fill-rule="evenodd" clip-rule="evenodd" d="M28.564 16.86v13.133h-2.408v-1.877a11.886 11.886 0 01-3.072 1.396c-1.089.32-2.22.48-3.396.48a12.02 12.02 0 01-4.727-.938 12.226 12.226 0 01-3.845-2.55 12.03 12.03 0 01-2.587-3.788c-.637-1.45-.953-3.003-.953-4.657 0-1.653.316-3.2.953-4.638a12.297 12.297 0 012.588-3.788 12.084 12.084 0 013.844-2.569c1.472-.627 3.049-.938 4.727-.938a12 12 0 014.672.92 12.164 12.164 0 013.88 2.583l-1.686 1.666a10.19 10.19 0 00-3.142-2.054 9.538 9.538 0 00-3.72-.742c-1.343 0-2.6.246-3.774.742a9.826 9.826 0 00-3.092 2.054 9.647 9.647 0 00-2.084 3.042 9.214 9.214 0 00-.754 3.718c0 1.323.25 2.562.754 3.715a9.62 9.62 0 002.084 3.046 9.78 9.78 0 003.092 2.054 9.597 9.597 0 003.774.742 9.641 9.641 0 003.486-.638 10.244 10.244 0 002.982-1.77v-5.972h-6.901V16.86h9.305z" fill="#fff"/><path fill-rule="evenodd" clip-rule="evenodd" d="M183.334 5.946v2.372h-8.01v21.525h-2.408V8.318h-8.014V5.946h18.432zm-58.823-.188v23.897h-2.409V10.003l-7.51 11.826h-2.513l-7.51-11.826v19.652h-2.409V5.758h2.483l8.692 13.664 8.697-13.664h2.479zM80.79 27.62c1.342 0 2.6-.247 3.77-.743a9.925 9.925 0 003.092-2.034 9.368 9.368 0 002.084-3.046 9.316 9.316 0 00.754-3.734c0-1.3-.25-2.53-.754-3.7a9.312 9.312 0 00-2.084-3.042 10.187 10.187 0 00-3.092-2.053 9.404 9.404 0 00-3.77-.762 9.41 9.41 0 00-3.775.762 10.217 10.217 0 00-3.087 2.053 9.395 9.395 0 00-2.085 3.042 9.258 9.258 0 00-.753 3.7c0 1.323.25 2.569.753 3.734a9.37 9.37 0 002.085 3.046 9.953 9.953 0 003.087 2.034 9.679 9.679 0 003.775.742zm0-21.49c1.678 0 3.247.31 4.707.938 1.46.627 2.744 1.48 3.845 2.565a12.12 12.12 0 012.603 3.788c.637 1.438.953 2.984.953 4.638 0 1.653-.32 3.203-.953 4.657a11.922 11.922 0 01-2.603 3.788 12.547 12.547 0 01-3.845 2.55c-1.46.627-3.029.938-4.707.938-1.679 0-3.252-.311-4.723-.938a12.272 12.272 0 01-3.845-2.55 12.071 12.071 0 01-2.588-3.788c-.636-1.45-.952-3.004-.952-4.657 0-1.654.316-3.2.952-4.638a12.342 12.342 0 012.588-3.788 12.054 12.054 0 013.845-2.565c1.471-.627 3.048-.939 4.723-.939zm59.486 2.177v7.469h11.315v2.373h-11.315v9.31h15.055v2.373h-17.464V5.935h17.464v2.372h-15.055zm-95.016 0v7.469h11.316v2.373H45.26v9.31h15.055v2.373H42.852V5.935h17.463v2.372H45.26zm209.75 17.628a12.091 12.091 0 01-3.86 2.55c-1.472.616-3.049.92-4.727.92-1.679 0-3.252-.312-4.723-.94a12.266 12.266 0 01-3.845-2.549 12.025 12.025 0 01-2.588-3.788c-.636-1.45-.953-3.003-.953-4.653 0-1.65.317-3.204.953-4.657a12.27 12.27 0 012.588-3.804A12.05 12.05 0 01241.7 6.45c1.471-.627 3.048-.938 4.723-.938 1.678 0 3.251.311 4.727.938a12.328 12.328 0 013.86 2.565l-1.725 1.665a10.231 10.231 0 00-3.111-2.034 9.427 9.427 0 00-3.755-.761 9.104 9.104 0 00-3.685.761 10.47 10.47 0 00-3.088 2.054 9.68 9.68 0 00-2.139 3.042 8.984 8.984 0 00-.788 3.734c0 1.277.25 2.484.753 3.63a10.097 10.097 0 002.065 3.046 9.9 9.9 0 003.072 2.108c1.175.519 2.444.776 3.81.776a9.871 9.871 0 003.735-.727 9.182 9.182 0 003.127-2.069l1.729 1.696zm11.97-3.887h9.774l-4.887-13.171-4.887 13.171zm12.436 7.257l-1.799-4.884h-11.534l-1.796 4.884h-2.588l8.873-23.897h2.587L282 29.305h-2.584z" fill="#E13010"/><path d="M223.797 5.408h-2.408v23.897h2.408V5.408z" fill="#E13010"/><path fill-rule="evenodd" clip-rule="evenodd" d="M195.947 21.19h6.827c.91 0 1.769-.169 2.569-.515a6.746 6.746 0 002.104-1.4 6.619 6.619 0 001.417-2.069 6.235 6.235 0 00.523-2.53c0-.896-.176-1.746-.523-2.55a6.553 6.553 0 00-1.417-2.088 6.7 6.7 0 00-2.104-1.4 6.487 6.487 0 00-2.569-.515h-6.827V21.19zm15.848-6.51c0 .919-.144 1.811-.433 2.672a9.489 9.489 0 01-1.183 2.389 8.528 8.528 0 01-1.835 1.926 8.578 8.578 0 01-2.373 1.292l4.602 6.692h-2.912l-4.204-6.16a25.96 25.96 0 01-1.834.072h-5.676v6.088h-2.408V5.758h9.235c1.246 0 2.42.234 3.521.707a9.28 9.28 0 012.877 1.912 8.834 8.834 0 011.92 2.83 8.667 8.667 0 01.703 3.473z" fill="#E13010"/></svg>