<?xml version="1.0" standalone="no"?>
<!DOCTYPE svg PUBLIC "-//W3C//DTD SVG 20010904//EN"
 "http://www.w3.org/TR/2001/REC-SVG-20010904/DTD/svg10.dtd">
<svg version="1.0" xmlns="http://www.w3.org/2000/svg"
 width="80.000000pt" height="80.000000pt" viewBox="0 0 80.000000 80.000000"
 preserveAspectRatio="xMidYMid meet">
<metadata>
Created by potrace 1.11, written by Peter Selinger 2001-2013
</metadata>
<g transform="translate(0.000000,80.000000) scale(0.100000,-0.100000)"
fill="#000000" stroke="none">
<path d="M50 525 l0 -276 60 -89 c33 -49 60 -92 60 -95 0 -3 10 -19 22 -35
l22 -30 155 0 c146 0 218 9 245 31 6 5 26 21 44 36 58 46 83 96 89 179 5 57 2
84 -12 121 -25 65 -83 125 -149 153 l-55 23 20 26 c11 15 22 39 25 55 3 16 6
31 6 35 1 3 -1 20 -5 36 -10 39 -46 81 -81 95 -16 6 -116 10 -237 10 l-209 0
0 -275z m427 246 c18 -2 73 -61 74 -80 0 -9 2 -23 4 -32 5 -26 -22 -76 -51
-96 -23 -15 -49 -18 -150 -18 l-122 -1 -48 78 c-27 43 -59 96 -72 117 l-22 39
187 -3 c104 -1 194 -3 200 -4z m-307 -177 c0 -3 10 -18 21 -34 19 -25 22 -43
23 -145 0 -64 -2 -121 -5 -127 -8 -12 -90 -17 -116 -7 -17 6 -18 22 -17 220 1
118 2 219 3 224 1 9 91 -121 91 -131z m325 -96 c91 -49 67 -194 -34 -216 -15
-3 -165 -5 -203 -3 -16 1 -18 14 -18 119 l0 118 113 -1 c84 0 119 -4 142 -17z
m91 -6 c127 -70 174 -210 113 -337 -24 -49 -98 -109 -151 -121 -13 -4 -87 -7
-165 -8 l-143 -2 0 113 0 113 103 1 c120 1 139 4 172 25 62 41 82 127 45 197
-22 41 -19 44 26 19z m-375 -249 c1 -15 1 -138 -1 -163 -1 -23 -2 -24 -13 -6
-7 10 -31 48 -54 83 -24 36 -43 68 -43 73 0 5 -6 11 -12 13 -7 3 17 6 55 6 37
1 67 -2 68 -6z"/>
</g>
</svg>
