<?xml version="1.0" standalone="no"?>
<!DOCTYPE svg PUBLIC "-//W3C//DTD SVG 20010904//EN"
 "http://www.w3.org/TR/2001/REC-SVG-20010904/DTD/svg10.dtd">
<svg version="1.0" xmlns="http://www.w3.org/2000/svg"
 width="70.000000pt" height="70.000000pt" viewBox="0 0 70.000000 70.000000"
 preserveAspectRatio="xMidYMid meet">
<metadata>
Created by potrace 1.11, written by Peter Selinger 2001-2013
</metadata>
<g transform="translate(0.000000,70.000000) scale(0.100000,-0.100000)"
fill="#000000" stroke="none">
<path d="M270 689 c0 -6 -4 -8 -8 -5 -17 10 -118 -47 -157 -88 -55 -60 -65
-73 -65 -89 0 -7 -5 -18 -12 -25 -17 -17 -22 -46 -22 -139 -1 -74 10 -117 21
-86 6 16 103 117 103 108 0 -4 10 5 22 21 49 63 155 159 201 183 15 8 27 17
27 21 0 3 11 7 24 8 16 1 25 -5 29 -18 3 -11 1 -20 -4 -20 -5 0 -14 -11 -19
-25 -12 -33 -87 -124 -131 -160 l-36 -30 26 -20 c51 -40 61 -50 61 -63 0 -20
11 -13 72 43 83 76 104 92 138 110 76 39 73 -19 -5 -115 -37 -45 -237 -245
-263 -262 l-26 -17 28 -10 c59 -23 189 -4 255 37 48 29 114 106 140 162 20 43
25 71 26 130 0 84 -5 111 -32 167 -34 72 -139 160 -217 180 -40 11 -176 12
-176 2z"/>
<path d="M146 225 c-3 -9 0 -15 9 -15 9 0 12 6 9 15 -4 8 -7 15 -9 15 -2 0 -5
-7 -9 -15z"/>
<path d="M120 161 c0 -23 14 -41 31 -41 21 0 25 20 7 38 -14 14 -38 16 -38 3z"/>
<path d="M210 155 c0 -8 4 -15 8 -15 5 0 9 7 9 15 0 8 -4 15 -9 15 -4 0 -8 -7
-8 -15z"/>
</g>
</svg>
