<svg width="50" height="50" fill="none" xmlns="http://www.w3.org/2000/svg"><path d="M25 0C11.195 0 0 11.195 0 25c0 2.87.488 5.62 1.376 8.184a12.168 12.168 0 012.91-4.697c1.258-1.259 4.057-4.287 5.621-4.88 1.664-2.6 2.963-3.705 6.197-6.938 6.527-6.527 12.988-10.642 14.44-9.19 1.453 1.452-2.663 7.914-9.19 14.44a69.434 69.434 0 01-4.103 3.792 12.123 12.123 0 017.055 7.062 69.611 69.611 0 013.798-4.104c6.527-6.527 12.994-10.642 14.44-9.19 1.453 1.452-2.663 7.914-9.19 14.44-3.233 3.234-4.285 4.58-6.89 6.245-.594 1.557-3.675 4.315-4.927 5.567a12.127 12.127 0 01-4.663 2.9 24.925 24.925 0 008.12 1.357C38.805 50 50 38.805 50 25S38.805 0 25 0z" fill="#236967"/><path d="M11.036 35.242a.887.887 0 00.623-.259.887.887 0 000-1.246.898.898 0 00-1.247 0 .881.881 0 00.624 1.505zm5.268 3.152a.898.898 0 00-1.246 0 .881.881 0 101.505.623.857.857 0 00-.259-.623zm-7.697-.477c-.652.647.16 2.305.424 2.799l.041.076.076.042c.26.135 1.294.664 2.088.664.282 0 .535-.065.711-.241.617-.617.365-1.611-.682-2.658-1.046-1.04-2.04-1.293-2.658-.682z" fill="#236967"/></svg>