<svg version="1.0" xmlns="http://www.w3.org/2000/svg" width="93.333" height="93.333" viewBox="0 0 70 70"><path d="M27 1.1c0 .6-.4.8-.8.5-1.7-1-11.8 4.7-15.7 8.8C5 16.4 4 17.7 4 19.3c0 .7-.5 1.8-1.2 2.5C1.1 23.5.6 26.4.6 35.7c-.1 7.4 1 11.7 2.1 8.6C3.3 42.7 13 32.6 13 33.5c0 .4 1-.5 2.2-2.1 4.9-6.3 15.5-15.9 20.1-18.3 1.5-.8 2.7-1.7 2.7-2.1 0-.3 1.1-.7 2.4-.8 1.6-.1 2.5.5 2.9 1.8.3 1.1.1 2-.4 2s-1.4 1.1-1.9 2.5c-1.2 3.3-8.7 12.4-13.1 16l-3.6 3 2.6 2c5.1 4 6.1 5 6.1 6.3 0 2 1.1 1.3 7.2-4.3 8.3-7.6 10.4-9.2 13.8-11 7.6-3.9 7.3 1.9-.5 11.5-3.7 4.5-23.7 24.5-26.3 26.2l-2.6 1.7 2.8 1c5.9 2.3 18.9.4 25.5-3.7 4.8-2.9 11.4-10.6 14-16.2 2-4.3 2.5-7.1 2.6-13 0-8.4-.5-11.1-3.2-16.7-3.4-7.2-13.9-16-21.7-18C40.6.2 27 .1 27 1.1z"/><path d="M14.6 47.5c-.3.9 0 1.5.9 1.5s1.2-.6.9-1.5c-.4-.8-.7-1.5-.9-1.5-.2 0-.5.7-.9 1.5zM12 53.9c0 2.3 1.4 4.1 3.1 4.1 2.1 0 2.5-2 .7-3.8-1.4-1.4-3.8-1.6-3.8-.3zm9 .6c0 .8.4 1.5.8 1.5.5 0 .9-.7.9-1.5s-.4-1.5-.9-1.5c-.4 0-.8.7-.8 1.5z"/></svg>