<svg width="80" height="100" viewBox="0 0 80 100" fill="none" xmlns="http://www.w3.org/2000/svg">
<path d="M78.5205 24.6735L53.6225 1.06122C52.7654 0.428571 51.9286 0 50.847 0H4.25517C1.90823 0 0.214355 1.91837 0.214355 4.04082V95.9592C0.214355 98.3061 2.13272 100 4.25517 100H75.745C78.0919 100 79.7858 98.3061 79.7858 95.9592V27.449C79.7858 26.3878 79.3776 25.5306 78.5205 24.6735ZM54.6838 12.9388L67.4593 25.102H54.6838V12.9388ZM71.9287 92.1225H8.09191V7.87755H46.6021V28.7347C46.6021 31.0816 48.5205 32.7755 50.6429 32.7755H71.9287V92.1225Z" fill="black"/>
<path d="M52.194 37.7756C50.4389 36.8572 48.296 37.5511 47.3777 39.2858L26.3164 79.7143C25.3981 81.4694 26.0307 83.7143 27.8266 84.5306C29.8675 85.4694 32.0103 84.2449 32.643 83.0204L53.7042 42.5919C54.6226 40.8368 53.9287 38.6735 52.194 37.7756Z" fill="black"/>
<path d="M37.1532 49.245C37.1532 42.3878 32.4185 36.8368 26.5613 36.8368C20.7042 36.8368 15.9695 42.3878 15.9695 49.245C15.9695 56.1021 20.7246 61.6327 26.5613 61.6327C32.3981 61.6327 37.1532 56.0817 37.1532 49.245ZM23.1123 49.245C23.1123 46.347 24.6634 43.9796 26.5613 43.9796C28.4593 43.9796 30.0103 46.3266 30.0103 49.245C30.0103 52.1633 28.4797 54.4899 26.5613 54.4899C24.643 54.4899 23.1123 52.1429 23.1123 49.245Z" fill="black"/>
<path d="M53.4388 60.6531C47.5816 60.6531 42.8469 66.2041 42.8469 73.0612C42.8469 79.9184 47.5816 85.4694 53.4388 85.4694C59.2959 85.4694 64.0306 79.9184 64.0306 73.0612C64.0306 66.2041 59.2959 60.6531 53.4388 60.6531ZM53.4388 78.3061C51.5408 78.3061 49.9898 75.9592 49.9898 73.0408C49.9898 70.1225 51.5408 67.7755 53.4388 67.7755C55.3367 67.7755 56.8877 70.1225 56.8877 73.0408C56.8877 75.9592 55.3571 78.3061 53.4388 78.3061Z" fill="black"/>
</svg>
