<?xml version="1.0" standalone="no"?>
<!DOCTYPE svg PUBLIC "-//W3C//DTD SVG 20010904//EN"
 "http://www.w3.org/TR/2001/REC-SVG-20010904/DTD/svg10.dtd">
<svg version="1.0" xmlns="http://www.w3.org/2000/svg"
 width="91.000000pt" height="91.000000pt" viewBox="0 0 91.000000 91.000000"
 preserveAspectRatio="xMidYMid meet">
<metadata>
Created by potrace 1.11, written by Peter Selinger 2001-2013
</metadata>
<g transform="translate(0.000000,91.000000) scale(0.100000,-0.100000)"
fill="#000000" stroke="none">
<path d="M235 885 c-14 -13 -25 -34 -26 -47 -1 -13 -2 -43 -3 -68 -1 -39 -4
-45 -26 -50 -61 -12 -80 -44 -80 -134 0 -55 3 -66 17 -66 9 0 24 7 34 16 21
19 61 10 52 -12 -3 -7 -4 -14 -2 -15 2 0 44 -6 94 -13 l90 -13 61 57 c69 64
118 89 143 73 38 -24 17 -83 -60 -165 -27 -29 -49 -57 -49 -62 0 -5 5 -49 11
-98 10 -74 15 -88 29 -88 26 0 30 -21 9 -50 -10 -14 -17 -34 -14 -45 2 -11 4
-27 4 -36 1 -14 15 -16 87 -17 80 0 89 2 117 27 l30 27 0 275 c0 200 -3 281
-12 297 -13 24 -69 54 -83 46 -5 -3 -8 22 -8 56 0 63 -11 96 -39 117 -23 18
-61 16 -61 -2 0 -8 8 -15 18 -15 35 0 52 -32 52 -96 l0 -59 -192 0 -192 0 -1
52 c-2 70 8 92 45 99 16 4 30 13 30 20 0 23 -49 16 -75 -11z"/>
<path d="M330 901 c0 -19 26 -26 95 -27 79 -1 91 2 99 22 4 11 -12 14 -94 14
-56 0 -100 -4 -100 -9z"/>
<path d="M100 307 l0 -122 78 78 c87 88 89 73 -20 134 l-58 32 0 -122z"/>
<path d="M247 159 c-48 -49 -85 -94 -83 -98 6 -9 276 -12 276 -2 0 11 -95 191
-101 191 -3 0 -45 -41 -92 -91z"/>
<path d="M247 29 c-10 -6 -15 -14 -12 -20 8 -12 52 -12 60 0 9 16 -28 31 -48
20z"/>
<path d="M565 32 c-15 -15 -2 -32 25 -32 37 0 41 26 5 32 -13 3 -27 3 -30 0z"/>
</g>
</svg>
