<svg width="70" height="70" fill="none" xmlns="http://www.w3.org/2000/svg"><path d="M70 0H0v70h70V0z" fill="#E13010"/><path fill-rule="evenodd" clip-rule="evenodd" d="M56.287 33.719v26.266H51.54v-3.753a23.25 23.25 0 01-12.745 3.753c-3.307 0-6.407-.63-9.314-1.877-2.907-1.253-5.43-2.953-7.576-5.099-2.146-2.146-3.846-4.669-5.1-7.576-1.253-2.9-1.876-6.007-1.876-9.314 0-3.308.623-6.4 1.876-9.276 1.254-2.885 2.954-5.407 5.1-7.576 2.146-2.17 4.669-3.885 7.576-5.138 2.9-1.254 6.007-1.877 9.314-1.877 3.254 0 6.323.615 9.207 1.838a23.946 23.946 0 017.645 5.169l-3.322 3.33a20.05 20.05 0 00-6.192-4.107 18.555 18.555 0 00-7.33-1.484c-2.646 0-5.123.492-7.438 1.484a19.34 19.34 0 00-6.091 4.107 19.305 19.305 0 00-4.107 6.084c-.993 2.315-1.485 4.792-1.485 7.438s.492 5.122 1.485 7.43a19.252 19.252 0 004.107 6.092 19.255 19.255 0 006.091 4.107c2.316.992 4.792 1.484 7.438 1.484 2.407 0 4.7-.43 6.868-1.277a20.13 20.13 0 005.877-3.538V38.465H37.95v-4.746h18.337z" fill="#fff"/></svg>