<svg version="1.0" xmlns="http://www.w3.org/2000/svg" width="93.333" height="93.333" viewBox="0 0 70 70"><path d="M0 35v35h70V0H0v35zm49.4-20c5 2.4 6.6 4.4 4.8 6.2-.7.7-2.7.2-6.6-1.7C43 17.3 41 16.8 37 17.2c-9.4.9-16.1 8-16.8 17.7-.5 7.4 2.1 13 8 16.8 3.5 2.4 5.2 2.8 10.8 2.8 4.6 0 7.4-.5 9.3-1.8 2.4-1.6 2.7-2.3 2.7-7.7v-6h-6.5c-6.3 0-6.5-.1-6.5-2.5 0-2.5.1-2.5 9-2.5h9v26h-2.5c-1.6 0-2.5-.6-2.5-1.5 0-1.8.1-1.9-4.6.1-9.2 3.8-22.1-.7-27.6-9.7-6.1-9.8-4.7-21.1 3.7-29.5 7.7-7.7 17-9.3 26.9-4.4z"/></svg>