<?xml version="1.0" standalone="no"?>
<!DOCTYPE svg PUBLIC "-//W3C//DTD SVG 20010904//EN"
 "http://www.w3.org/TR/2001/REC-SVG-20010904/DTD/svg10.dtd">
<svg version="1.0" xmlns="http://www.w3.org/2000/svg"
 width="73.000000pt" height="73.000000pt" viewBox="0 0 73.000000 73.000000"
 preserveAspectRatio="xMidYMid meet">
<metadata>
Created by potrace 1.11, written by Peter Selinger 2001-2013
</metadata>
<g transform="translate(0.000000,73.000000) scale(0.100000,-0.100000)"
fill="#000000" stroke="none">
<path d="M318 698 c-13 -13 -67 -61 -118 -108 -205 -187 -200 -181 -200 -211
0 -32 12 -42 50 -41 l27 1 1 -154 c0 -84 2 -158 6 -163 7 -12 196 -13 211 -2
6 5 10 52 9 105 l0 96 55 -3 56 -3 1 -90 c0 -50 2 -95 2 -102 2 -8 34 -11 110
-10 l107 2 2 148 c1 82 4 155 7 163 3 8 18 14 34 14 32 0 52 16 52 41 0 9 -24
38 -52 64 -29 26 -91 83 -138 125 -188 172 -179 167 -222 128z"/>
<path d="M555 615 c104 -97 102 -97 100 -17 -1 37 -3 70 -3 75 -1 4 -39 7 -84
7 l-83 0 70 -65z"/>
</g>
</svg>
