<svg width="28" height="28" fill="none" xmlns="http://www.w3.org/2000/svg"><circle cx="14" cy="14" r="14" fill="#F59124"/><path d="M18.607 9.91C17.509 8.903 16.18 8.4 14.534 8.4c-1.694 0-3.159.55-4.349 1.694C8.995 11.238 8.4 12.657 8.4 14.35c0 1.648.55 3.02 1.694 4.21s2.655 1.74 4.623 1.74a8.429 8.429 0 003.432-.732c.366-.138.55-.595.412-.962-.137-.366-.595-.549-.961-.411-.961.412-1.922.64-2.838.64-1.464 0-2.609-.457-3.432-1.373-.824-.915-1.236-1.968-1.236-3.158 0-1.327.458-2.425 1.281-3.295.87-.87 1.923-1.327 3.204-1.327 1.144 0 2.151.366 2.975 1.098.824.732 1.19 1.648 1.19 2.746 0 .732-.183 1.373-.549 1.877-.366.503-.732.732-1.144.732-.23 0-.32-.091-.32-.366 0-.183 0-.412.045-.64l.458-3.708h-1.556l-.092.366c-.412-.32-.824-.504-1.281-.504-.733 0-1.373.32-1.923.916-.549.595-.778 1.373-.778 2.288 0 .916.23 1.648.732 2.243.458.55 1.053.824 1.694.824.595 0 1.099-.229 1.51-.732.32.457.779.732 1.42.732.915 0 1.693-.412 2.38-1.19.686-.778 1.006-1.74 1.006-2.884-.137-1.373-.686-2.609-1.74-3.57zm-3.616 5.584c-.274.366-.595.55-1.007.55-.274 0-.457-.138-.64-.412-.184-.275-.23-.595-.23-1.007 0-.504.092-.916.321-1.19.229-.32.503-.458.824-.458.274 0 .55.091.778.366.229.229.32.55.32.915.046.458-.091.87-.366 1.236z" fill="#fff"/></svg>