<svg width="282" height="35" viewBox="0 0 282 35" fill="none" xmlns="http://www.w3.org/2000/svg">
<path d="M35.5242 0H0V35H35.5242V0Z" fill="#E13010"/>
<path fill-rule="evenodd" clip-rule="evenodd" d="M28.5644 16.8594V29.9926H26.156V28.1159C25.1997 28.7273 24.1731 29.1927 23.0841 29.5119C21.9951 29.8311 20.8631 29.9926 19.6882 29.9926C18.0098 29.9926 16.4367 29.6772 14.9613 29.0542C13.4858 28.4274 12.2055 27.5775 11.1165 26.5045C10.0275 25.4315 9.16483 24.1701 8.52858 22.7165C7.89234 21.2666 7.57617 19.7129 7.57617 18.0593C7.57617 16.4056 7.89234 14.8596 8.52858 13.4213C9.16483 11.9792 10.0275 10.7178 11.1165 9.63328C12.2055 8.54879 13.4858 7.69119 14.9613 7.06434C16.4328 6.43748 18.0098 6.12598 19.6882 6.12598C21.3393 6.12598 22.8967 6.43363 24.3605 7.04511C25.8242 7.65658 27.1162 8.52187 28.2404 9.62944L26.5542 11.2946C25.6447 10.4217 24.5947 9.73712 23.412 9.24102C22.2254 8.74492 20.988 8.49879 19.6921 8.49879C18.3494 8.49879 17.0925 8.74492 15.9176 9.24102C14.7427 9.73712 13.7161 10.4217 12.8261 11.2946C11.9401 12.1676 11.2453 13.1829 10.7418 14.3366C10.2382 15.4942 9.98843 16.7325 9.98843 18.0554C9.98843 19.3784 10.2382 20.6167 10.7418 21.7704C11.2453 22.928 11.9401 23.9432 12.8261 24.8162C13.7122 25.6892 14.7427 26.3738 15.9176 26.8699C17.0925 27.366 18.3494 27.6121 19.6921 27.6121C20.9138 27.6121 22.077 27.3967 23.1778 26.9737C24.2785 26.5507 25.2739 25.9584 26.1599 25.2046V19.2322H19.2588V16.8594H28.5644Z" fill="white"/>
<path fill-rule="evenodd" clip-rule="evenodd" d="M183.334 5.94556V8.31837H175.324V29.8429H172.916V8.31837H164.902V5.94556H183.334Z" fill="#E13010"/>
<path fill-rule="evenodd" clip-rule="evenodd" d="M124.511 5.75757V29.6549H122.102V10.0033L114.592 21.8289H112.079L104.569 10.0033V29.6549H102.16V5.75757H104.643L113.335 19.4215L122.032 5.75757H124.511Z" fill="#E13010"/>
<path fill-rule="evenodd" clip-rule="evenodd" d="M80.7898 27.6193C82.1325 27.6193 83.3894 27.3732 84.5604 26.8771C85.7353 26.381 86.7657 25.7042 87.6518 24.8427C88.5379 23.9813 89.2326 22.966 89.7362 21.7969C90.2397 20.6316 90.4895 19.3856 90.4895 18.0627C90.4895 16.7628 90.2397 15.5322 89.7362 14.3631C89.2326 13.194 88.5379 12.1787 87.6518 11.3211C86.7657 10.4597 85.7353 9.77515 84.5604 9.26751C83.3855 8.75988 82.1286 8.50606 80.7898 8.50606C79.447 8.50606 78.1901 8.75988 77.0152 9.26751C75.8442 9.77515 74.8138 10.4597 73.9277 11.3211C73.0417 12.1826 72.3469 13.1978 71.8433 14.3631C71.3398 15.5322 71.09 16.7667 71.09 18.0627C71.09 19.3856 71.3398 20.6316 71.8433 21.7969C72.3469 22.966 73.0417 23.9813 73.9277 24.8427C74.8138 25.7042 75.8442 26.381 77.0152 26.8771C78.1901 27.3694 79.4509 27.6193 80.7898 27.6193ZM80.7898 6.12939C82.4682 6.12939 84.0373 6.4409 85.4972 7.06775C86.957 7.69461 88.2412 8.54836 89.3419 9.63286C90.4427 10.7174 91.3131 11.9826 91.9455 13.4209C92.5817 14.8592 92.8979 16.4052 92.8979 18.0589C92.8979 19.7125 92.5778 21.2624 91.9455 22.716C91.3092 24.1659 90.4427 25.4311 89.3419 26.5041C88.2412 27.577 86.957 28.427 85.4972 29.0538C84.0373 29.6807 82.4682 29.9922 80.7898 29.9922C79.1113 29.9922 77.5383 29.6807 76.0667 29.0538C74.5952 28.427 73.311 27.577 72.222 26.5041C71.1329 25.4311 70.2703 24.1659 69.634 22.716C68.9978 21.2662 68.6816 19.7125 68.6816 18.0589C68.6816 16.4052 68.9978 14.8592 69.634 13.4209C70.2703 11.9826 71.1329 10.7174 72.222 9.63286C73.311 8.54836 74.5952 7.69076 76.0667 7.06775C77.5383 6.4409 79.1152 6.12939 80.7898 6.12939Z" fill="#E13010"/>
<path fill-rule="evenodd" clip-rule="evenodd" d="M140.276 8.30739V15.7758H151.591V18.1486H140.276V27.4591H155.331V29.8319H137.867V5.93457H155.331V8.30739H140.276Z" fill="#E13010"/>
<path fill-rule="evenodd" clip-rule="evenodd" d="M45.2599 8.30739V15.7758H56.5757V18.1486H45.2599V27.4591H60.3151V29.8319H42.8516V5.93457H60.3151V8.30739H45.2599Z" fill="#E13010"/>
<path fill-rule="evenodd" clip-rule="evenodd" d="M255.01 25.9354C253.909 27.0199 252.621 27.8698 251.15 28.4851C249.678 29.1005 248.101 29.4043 246.423 29.4043C244.744 29.4043 243.171 29.0928 241.7 28.4659C240.228 27.8391 238.944 26.9892 237.855 25.9162C236.766 24.8432 235.903 23.5818 235.267 22.1281C234.631 20.6783 234.314 19.1246 234.314 17.4748C234.314 15.825 234.631 14.2713 235.267 12.8176C235.903 11.3678 236.766 10.0987 237.855 9.0142C238.944 7.92971 240.228 7.07211 241.7 6.4491C243.171 5.82225 244.748 5.51074 246.423 5.51074C248.101 5.51074 249.674 5.82225 251.15 6.4491C252.621 7.07596 253.909 7.92971 255.01 9.0142L253.285 10.6794C252.399 9.8295 251.36 9.1488 250.174 8.64501C248.991 8.13738 247.738 7.88356 246.419 7.88356C245.123 7.88356 243.897 8.13738 242.734 8.64501C241.571 9.15265 240.544 9.83719 239.646 10.6986C238.745 11.5601 238.034 12.5754 237.507 13.7406C236.98 14.9097 236.719 16.1557 236.719 17.4748C236.719 18.7516 236.969 19.9592 237.472 21.1052C237.976 22.2512 238.663 23.2626 239.537 24.151C240.411 25.0355 241.434 25.7393 242.609 26.2585C243.784 26.7776 245.053 27.0353 246.419 27.0353C247.711 27.0353 248.956 26.793 250.154 26.3085C251.353 25.8239 252.395 25.1355 253.281 24.2395L255.01 25.9354Z" fill="#E13010"/>
<path fill-rule="evenodd" clip-rule="evenodd" d="M266.98 22.0482H276.754L271.867 8.87656L266.98 22.0482ZM279.416 29.3051L277.617 24.421H266.083L264.287 29.3051H261.699L270.572 5.40771H273.159L282 29.3051H279.416Z" fill="#E13010"/>
<path d="M223.797 5.40771H221.389V29.3051H223.797V5.40771Z" fill="#E13010"/>
<path fill-rule="evenodd" clip-rule="evenodd" d="M195.947 21.1905H202.774C203.684 21.1905 204.543 21.0213 205.343 20.6752C206.143 20.3329 206.846 19.8676 207.447 19.2753C208.044 18.6831 208.52 17.9947 208.864 17.2063C209.211 16.4141 209.387 15.5719 209.387 14.6758C209.387 13.7798 209.211 12.9299 208.864 12.1261C208.516 11.3223 208.044 10.6263 207.447 10.0379C206.846 9.44562 206.147 8.98029 205.343 8.63802C204.539 8.29575 203.684 8.12269 202.774 8.12269H195.947V21.1905ZM211.795 14.6797C211.795 15.5988 211.651 16.491 211.362 17.3524C211.077 18.2139 210.679 19.01 210.179 19.7406C209.676 20.4713 209.063 21.1136 208.344 21.6674C207.626 22.2211 206.834 22.6519 205.971 22.9595L210.573 29.6511H207.661L203.457 23.4902C203.145 23.5133 202.841 23.5325 202.54 23.5441C202.24 23.5556 201.935 23.5633 201.623 23.5633H195.947V29.6511H193.539V5.75757H202.774C204.02 5.75757 205.194 5.99216 206.295 6.46518C207.4 6.93821 208.356 7.5766 209.172 8.37651C209.984 9.18027 210.628 10.1225 211.092 11.207C211.561 12.2953 211.795 13.449 211.795 14.6797Z" fill="#E13010"/>
</svg>
