<svg width="70" height="70" viewBox="0 0 70 70" fill="none" xmlns="http://www.w3.org/2000/svg">
<path d="M70 0H0V70H70V0Z" fill="#E13010"/>
<path fill-rule="evenodd" clip-rule="evenodd" d="M56.2867 33.7188V59.9852H51.541V56.2317C49.6566 57.4547 47.6338 58.3853 45.4879 59.0237C43.3419 59.6621 41.1114 59.9852 38.7963 59.9852C35.489 59.9852 32.3893 59.3545 29.4819 58.1085C26.5746 56.8547 24.0518 55.1549 21.9058 53.009C19.7599 50.8631 18.0601 48.3403 16.8064 45.4329C15.5527 42.5332 14.9297 39.4259 14.9297 36.1186C14.9297 32.8112 15.5527 29.7193 16.8064 26.8427C18.0601 23.9584 19.7599 21.4356 21.9058 19.2666C24.0518 17.0976 26.5746 15.3824 29.4819 14.1287C32.3816 12.875 35.489 12.252 38.7963 12.252C42.0498 12.252 45.1187 12.8673 48.003 14.0902C50.8873 15.3132 53.4331 17.0437 55.6483 19.2589L52.3256 22.5893C50.5335 20.8433 48.4645 19.4742 46.1339 18.482C43.7957 17.4898 41.3575 16.9976 38.804 16.9976C36.1581 16.9976 33.6815 17.4898 31.3663 18.482C29.0512 19.4742 27.0284 20.8433 25.2747 22.5893C23.5287 24.3352 22.1597 26.3658 21.1675 28.6732C20.1753 30.9884 19.683 33.465 19.683 36.1109C19.683 38.7567 20.1753 41.2334 21.1675 43.5408C22.1597 45.856 23.5287 47.8865 25.2747 49.6325C27.0207 51.3784 29.0512 52.7475 31.3663 53.7397C33.6815 54.7319 36.1581 55.2242 38.804 55.2242C41.2114 55.2242 43.5035 54.7934 45.6725 53.9474C47.8414 53.1013 49.8028 51.9168 51.5487 50.4093V38.4645H37.9502V33.7188H56.2867V33.7188Z" fill="white"/>
</svg>
