<?xml version="1.0" standalone="no"?>
<!DOCTYPE svg PUBLIC "-//W3C//DTD SVG 20010904//EN"
 "http://www.w3.org/TR/2001/REC-SVG-20010904/DTD/svg10.dtd">
<svg version="1.0" xmlns="http://www.w3.org/2000/svg"
 width="70.000000pt" height="70.000000pt" viewBox="0 0 70.000000 70.000000"
 preserveAspectRatio="xMidYMid meet">
<metadata>
Created by potrace 1.14, written by Peter Selinger 2001-2017
</metadata>
<g transform="translate(0.000000,70.000000) scale(0.100000,-0.100000)"
fill="#000000" stroke="none">
<path d="M0 350 l0 -350 350 0 350 0 0 350 0 350 -350 0 -350 0 0 -350z m494
200 c50 -24 66 -44 48 -62 -7 -7 -27 -2 -66 17 -46 22 -66 27 -106 23 -94 -9
-161 -80 -168 -177 -5 -74 21 -130 80 -168 35 -24 52 -28 108 -28 46 0 74 5
93 18 24 16 27 23 27 77 l0 60 -65 0 c-63 0 -65 1 -65 25 0 25 1 25 90 25 l90
0 0 -130 0 -130 -25 0 c-16 0 -25 6 -25 15 0 18 1 19 -46 -1 -92 -38 -221 7
-276 97 -61 98 -47 211 37 295 77 77 170 93 269 44z"/>
</g>
</svg>
