<?xml version="1.0" standalone="no"?>
<!DOCTYPE svg PUBLIC "-//W3C//DTD SVG 20010904//EN"
 "http://www.w3.org/TR/2001/REC-SVG-20010904/DTD/svg10.dtd">
<svg version="1.0" xmlns="http://www.w3.org/2000/svg"
 width="115.000000pt" height="115.000000pt" viewBox="0 0 115.000000 115.000000"
 preserveAspectRatio="xMidYMid meet">
<metadata>
Created by potrace 1.14, written by Peter Selinger 2001-2017
</metadata>
<g transform="translate(0.000000,115.000000) scale(0.100000,-0.100000)"
fill="#000000" stroke="none">
<path d="M544 906 c-4 -16 -15 -26 -35 -30 -37 -7 -61 -55 -49 -97 7 -22 5
-28 -11 -32 -20 -5 -26 -32 -9 -42 6 -3 10 -1 10 4 0 6 7 11 15 11 19 0 19
-14 -1 -30 -20 -18 -46 7 -46 44 0 14 -4 26 -9 26 -12 0 -11 -39 3 -100 10
-43 9 -53 -3 -61 -17 -10 -31 -7 -37 9 -2 7 3 12 12 12 19 0 21 26 3 33 -7 3
-22 -2 -32 -9 -18 -14 -19 -17 -5 -42 19 -33 52 -40 78 -14 15 15 22 16 38 6
37 -24 83 -24 110 -1 34 29 36 83 5 108 -12 10 -22 20 -21 23 1 16 -1 18 -13
8 -8 -7 -18 -6 -32 4 -17 13 -18 16 -5 24 8 5 23 7 33 4 46 -14 76 66 38 100
-22 20 -18 48 5 39 10 -4 12 0 8 11 -10 25 -43 20 -50 -8z m20 -62 c19 -18 19
-20 6 -44 -6 -11 -17 -17 -25 -14 -20 8 -19 24 2 24 16 0 16 1 1 17 -14 13
-20 14 -32 3 -9 -7 -16 -21 -16 -31 0 -11 -4 -19 -10 -19 -16 0 -12 42 7 62
20 22 46 23 67 2z m9 -175 c8 -11 13 -29 10 -39 -5 -20 -49 -40 -70 -33 -22 8
-14 20 17 27 29 5 40 28 20 41 -5 3 -10 1 -10 -4 0 -6 -7 -11 -15 -11 -15 0
-21 21 -8 33 13 14 42 6 56 -14z m-93 -25 c0 -9 -5 -14 -12 -12 -18 6 -21 28
-4 28 9 0 16 -7 16 -16z"/>
<path d="M627 924 c-12 -13 -7 -24 8 -18 10 4 15 0 15 -14 0 -11 -7 -25 -15
-32 -19 -16 -19 -64 0 -80 14 -11 25 -14 74 -19 11 -1 11 -4 0 -17 -7 -9 -22
-14 -36 -11 -13 2 -21 2 -18 -1 3 -3 -4 -15 -16 -28 -25 -27 -33 -73 -16 -95
31 -41 82 -45 135 -11 14 9 22 10 22 3 0 -6 11 -16 24 -22 35 -16 66 3 66 41
0 25 -4 30 -24 30 -32 0 -44 -20 -17 -27 12 -3 21 -9 21 -14 0 -13 -17 -19
-35 -13 -13 5 -16 15 -11 43 17 104 18 119 8 125 -7 4 -9 -3 -6 -19 5 -29 -28
-68 -51 -59 -19 8 -20 34 0 34 8 0 15 -5 15 -11 0 -5 5 -7 10 -4 17 10 11 37
-9 42 -15 4 -18 12 -14 48 4 34 1 47 -16 64 -11 11 -29 21 -39 21 -9 0 -22 10
-27 22 -10 23 -35 34 -48 22z m97 -80 c9 -8 16 -27 16 -41 0 -21 -2 -23 -15
-13 -8 7 -13 16 -10 20 8 13 -21 31 -39 24 -16 -6 -23 -26 -7 -21 5 1 9 -2 10
-8 2 -19 -34 -10 -37 9 -8 38 52 60 82 30z m-19 -164 c4 -6 4 -19 0 -28 -6
-16 -7 -16 -20 1 -9 12 -15 14 -20 7 -12 -19 3 -40 30 -40 22 0 38 -19 18 -21
-5 0 -16 -2 -25 -4 -39 -7 -70 51 -43 79 19 18 51 21 60 6z m64 -36 c-16 -19
-26 -18 -31 4 -4 15 -1 18 19 14 19 -3 21 -7 12 -18z"/>
<path d="M70 503 c-37 -16 -52 -32 -44 -45 8 -12 24 -10 21 3 -1 6 8 18 21 26
20 14 22 14 22 -2 0 -25 -42 -95 -57 -95 -7 0 -13 5 -13 10 0 6 -4 10 -10 10
-5 0 -10 -9 -10 -20 0 -32 36 -24 64 13 15 19 26 39 26 45 0 30 19 8 25 -29 4
-24 12 -38 18 -36 7 2 11 10 10 18 -4 28 -26 104 -32 110 -3 4 -22 0 -41 -8z"/>
<path d="M172 468 c-12 -28 -20 -54 -17 -56 2 -3 7 3 11 12 3 9 10 16 16 16 5
0 7 -4 3 -10 -9 -14 6 -60 19 -60 13 0 10 128 -3 143 -4 4 -17 -16 -29 -45z"/>
<path d="M331 483 c-6 -21 -12 -54 -13 -73 -3 -29 1 -36 19 -38 25 -4 53 31
53 66 0 20 -2 22 -22 11 -13 -7 -18 -14 -12 -16 13 -4 7 -43 -6 -43 -9 0 -5
58 6 103 10 42 -14 33 -25 -10z"/>
<path d="M500 468 c-23 -103 -23 -98 5 -98 26 0 35 15 13 22 -12 4 -3 64 17
111 5 12 3 17 -8 17 -10 0 -19 -17 -27 -52z"/>
<path d="M730 506 c-48 -14 -90 -36 -90 -48 0 -16 26 -7 38 12 7 11 19 20 28
20 24 0 9 -80 -19 -102 -22 -17 -21 -18 25 -18 26 0 50 5 53 10 4 6 -5 10 -20
10 -21 0 -26 4 -21 16 3 9 6 20 6 25 0 5 11 9 24 9 14 0 28 5 32 11 4 7 -2 9
-14 7 -12 -2 -21 0 -22 5 -2 36 0 39 27 32 23 -5 25 -4 14 9 -8 9 -14 16 -15
15 0 0 -21 -6 -46 -13z"/>
<path d="M820 478 c-6 -24 -15 -58 -20 -75 -8 -34 3 -46 14 -17 6 15 8 15 25
0 28 -25 74 -18 76 12 2 28 25 55 25 30 0 -9 -5 -20 -10 -23 -8 -5 -7 -11 1
-21 21 -25 34 -15 36 30 2 39 0 43 -18 39 -10 -3 -32 -20 -47 -38 -24 -27 -31
-30 -46 -20 -15 11 -14 14 6 28 28 18 15 36 -13 19 -18 -12 -19 -10 -13 15 4
16 11 36 16 46 6 12 5 17 -6 17 -9 0 -19 -16 -26 -42z"/>
<path d="M991 449 c-7 -38 -11 -73 -7 -76 3 -3 17 -2 31 1 27 7 48 46 39 71
-9 22 -33 0 -27 -24 3 -10 0 -22 -7 -26 -15 -9 -24 0 -14 16 4 7 8 24 9 39 1
14 6 36 9 48 5 16 3 22 -7 22 -9 0 -18 -23 -26 -71z"/>
<path d="M432 447 c-26 -12 -40 -53 -24 -69 8 -8 18 -8 34 0 18 8 19 11 6 11
-13 1 -18 9 -17 29 1 15 3 20 6 10 5 -19 33 -13 33 7 0 20 -12 24 -38 12z"/>
<path d="M246 434 c-18 -17 -19 -24 -10 -48 7 -18 39 -22 49 -6 4 6 1 9 -6 8
-6 -2 -13 10 -16 25 -2 19 0 26 7 22 6 -3 8 -11 5 -16 -9 -14 11 -11 24 4 23
28 -26 38 -53 11z"/>
<path d="M560 440 l-25 -6 25 -5 c21 -4 84 6 70 11 -15 5 -48 5 -70 0z"/>
<path d="M1076 438 c-18 -59 -8 -84 22 -54 11 11 12 16 4 16 -8 0 -10 8 -6 25
6 25 -13 37 -20 13z"/>
<path d="M1127 432 c-17 -19 -13 -66 6 -59 9 3 23 77 14 77 -2 0 -11 -8 -20
-18z"/>
<path d="M764 294 c-15 -23 -16 -27 -2 -41 14 -13 15 -12 11 11 -3 15 -1 26 6
26 6 0 11 -10 12 -22 0 -22 1 -22 9 -3 5 14 3 24 -7 32 -12 10 -12 12 4 16 16
4 16 5 1 6 -10 0 -25 -11 -34 -25z"/>
<path d="M137 293 c-4 -3 -7 -14 -7 -24 0 -19 26 -33 35 -18 4 5 1 8 -6 7 -22
-6 -21 22 3 31 22 9 22 10 2 10 -11 1 -24 -2 -27 -6z"/>
<path d="M206 294 c7 -3 10 -15 8 -27 -2 -12 -1 -15 2 -7 4 8 11 21 17 28 7 9
3 12 -14 11 -13 0 -19 -3 -13 -5z"/>
<path d="M268 275 c2 -14 7 -25 10 -25 7 0 31 33 32 44 0 6 -7 1 -15 -10 -13
-17 -14 -17 -15 -1 0 9 -4 17 -9 17 -4 0 -6 -11 -3 -25z"/>
<path d="M344 278 c-4 -13 -11 -26 -16 -29 -7 -4 -7 -9 0 -13 6 -3 15 8 21 24
11 33 26 42 18 11 -2 -10 -1 -25 4 -32 6 -10 9 -8 9 8 0 12 3 28 6 37 4 11 0
16 -14 16 -13 0 -23 -9 -28 -22z"/>
<path d="M417 281 c-3 -11 -1 -23 3 -26 14 -8 22 13 12 31 -8 14 -10 14 -15
-5z"/>
<path d="M447 293 c-3 -5 -1 -17 3 -28 6 -17 7 -16 12 8 5 25 -5 37 -15 20z"/>
<path d="M499 298 c-5 -17 -4 -48 3 -48 4 0 8 9 8 20 0 11 4 20 9 20 5 0 7
-10 4 -22 -4 -19 -3 -20 6 -8 17 23 13 40 -9 40 -11 0 -20 -1 -21 -2z"/>
<path d="M607 293 c-4 -3 -7 -16 -6 -27 0 -19 1 -19 10 3 10 24 8 36 -4 24z"/>
<path d="M632 288 c-15 -15 -16 -32 -2 -23 6 3 10 0 11 -7 0 -12 17 18 18 35
1 11 -14 8 -27 -5z"/>
<path d="M685 279 c-4 -12 -2 -26 5 -33 10 -8 12 -7 7 7 -4 9 -2 17 4 17 6 0
7 5 4 10 -3 6 -2 10 4 10 5 0 12 -6 14 -12 3 -8 6 -6 6 5 1 25 -36 22 -44 -4z"/>
<path d="M837 294 c-16 -17 -7 -44 16 -43 21 0 21 1 2 9 -19 8 -19 9 3 9 14 1
22 6 20 14 -5 14 -31 21 -41 11z m30 -10 c-3 -3 -12 -4 -19 -1 -8 3 -5 6 6 6
11 1 17 -2 13 -5z"/>
<path d="M912 275 c-6 -14 -8 -25 -3 -25 5 0 12 10 16 23 l7 22 7 -25 7 -25 6
28 c7 36 -24 38 -40 2z"/>
<path d="M986 282 c-9 -27 -5 -34 10 -24 7 4 8 16 4 27 -7 19 -7 19 -14 -3z"/>
<path d="M1015 290 c-3 -5 -1 -18 4 -27 9 -16 10 -14 11 10 0 28 -5 34 -15 17z"/>
</g>
</svg>
